<mxfile host="Electron" agent="Mozilla/5.0 (Macintosh; Intel Mac OS X 10_15_7) AppleWebKit/537.36 (KHTML, like Gecko) draw.io/24.7.17 Chrome/128.0.6613.36 Electron/32.0.1 Safari/537.36" version="24.7.17">
  <diagram id="FbTihsq758RvUeCwRkWt" name="Page-1">
    <mxGraphModel dx="2037" dy="874" grid="1" gridSize="10" guides="1" tooltips="1" connect="1" arrows="1" fold="1" page="1" pageScale="1" pageWidth="827" pageHeight="1169" math="0" shadow="0">
      <root>
        <mxCell id="0" />
        <mxCell id="1" parent="0" />
        <mxCell id="N2usLRuaXVRc8HSE8ele-29" value="" style="rounded=1;whiteSpace=wrap;html=1;strokeColor=none;fillColor=#CCCCFF;arcSize=4;fontColor=#ffffff;opacity=50;" vertex="1" parent="1">
          <mxGeometry x="130" y="486" width="530" height="124" as="geometry" />
        </mxCell>
        <mxCell id="EyACuZ3WsZrGH7T3GwWN-1" value="" style="rounded=1;whiteSpace=wrap;html=1;strokeColor=none;fillColor=#CCCCFF;arcSize=4;fontColor=#ffffff;opacity=50;" parent="1" vertex="1">
          <mxGeometry x="130" y="123" width="530" height="357" as="geometry" />
        </mxCell>
        <mxCell id="EyACuZ3WsZrGH7T3GwWN-2" value="&lt;div style=&quot;text-align: justify; padding-left: 5px; padding-right: 5px;&quot;&gt;&lt;div&gt;&lt;strong style=&quot;background-color: initial;&quot; data-end=&quot;80&quot; data-start=&quot;74&quot;&gt;Q:&lt;/strong&gt;&lt;span style=&quot;background-color: initial;&quot;&gt;&amp;nbsp;Given the blacklist of meme, did the wallet buy too many blacklist tokens?&lt;/span&gt;&lt;br&gt;&lt;/div&gt;&lt;div&gt;&lt;span style=&quot;background-color: initial;&quot;&gt;- Blacklist of meme:&amp;nbsp;&lt;/span&gt;&lt;span style=&quot;background-color: initial; color: rgb(0, 0, 255);&quot;&gt;{&lt;/span&gt;&lt;i style=&quot;background-color: initial; color: rgb(0, 0, 255);&quot;&gt;slippage&lt;/i&gt;&lt;span style=&quot;background-color: initial; color: rgb(0, 0, 255);&quot;&gt;}&lt;/span&gt;&lt;/div&gt;&lt;/div&gt;" style="rounded=1;whiteSpace=wrap;html=1;strokeColor=none;fillColor=#CCCCFF;align=left;" parent="1" vertex="1">
          <mxGeometry x="140" y="140" width="510" height="50" as="geometry" />
        </mxCell>
        <mxCell id="EyACuZ3WsZrGH7T3GwWN-3" value="" style="shape=image;verticalLabelPosition=bottom;labelBackgroundColor=default;verticalAlign=top;aspect=fixed;imageAspect=0;image=https://openclipart.org/image/800px/247320;" parent="1" vertex="1">
          <mxGeometry x="137" y="125" width="26" height="26" as="geometry" />
        </mxCell>
        <mxCell id="EyACuZ3WsZrGH7T3GwWN-4" value="&lt;blockquote style=&quot;margin: 0 0 0 40px; border: none; padding: 0px;&quot;&gt;&lt;div style=&quot;text-align: justify; padding-left: 5px; padding-right: 5px;&quot;&gt;&lt;div&gt;&lt;strong style=&quot;background-color: initial;&quot; data-end=&quot;80&quot; data-start=&quot;74&quot;&gt;&lt;span style=&quot;white-space: pre;&quot;&gt;&#x9;&lt;/span&gt;A:&lt;/strong&gt;&lt;span style=&quot;background-color: initial;&quot;&gt;&amp;nbsp;Yes, [Explanations]&lt;/span&gt;&lt;/div&gt;&lt;/div&gt;&lt;/blockquote&gt;" style="rounded=1;whiteSpace=wrap;html=1;strokeColor=none;fillColor=#CCCCFF;align=left;" parent="1" vertex="1">
          <mxGeometry x="140" y="212" width="250" height="20" as="geometry" />
        </mxCell>
        <mxCell id="EyACuZ3WsZrGH7T3GwWN-6" value="&lt;b&gt;Prompt 1: Blacklist&lt;/b&gt;" style="text;html=1;align=center;verticalAlign=middle;whiteSpace=wrap;rounded=0;" parent="1" vertex="1">
          <mxGeometry x="156.5" y="130" width="120" height="10" as="geometry" />
        </mxCell>
        <mxCell id="EyACuZ3WsZrGH7T3GwWN-7" value="&lt;b&gt;Reply 1:&amp;nbsp;&lt;/b&gt;&lt;b&gt;Blacklist&lt;/b&gt;" style="text;html=1;align=center;verticalAlign=middle;whiteSpace=wrap;rounded=0;" parent="1" vertex="1">
          <mxGeometry x="156.5" y="202" width="107" height="10" as="geometry" />
        </mxCell>
        <mxCell id="EyACuZ3WsZrGH7T3GwWN-12" value="" style="rounded=1;whiteSpace=wrap;html=1;dashed=1;strokeWidth=2;fillColor=none;" parent="1" vertex="1">
          <mxGeometry x="140" y="213" width="250" height="18" as="geometry" />
        </mxCell>
        <mxCell id="EyACuZ3WsZrGH7T3GwWN-13" value="&lt;blockquote style=&quot;margin: 0 0 0 40px; border: none; padding: 0px;&quot;&gt;&lt;div style=&quot;text-align: justify; padding-left: 5px; padding-right: 5px;&quot;&gt;&lt;div&gt;&lt;strong style=&quot;background-color: initial;&quot; data-end=&quot;80&quot; data-start=&quot;74&quot;&gt;&lt;span style=&quot;white-space: pre;&quot;&gt;&#x9;&lt;/span&gt;A:&lt;/strong&gt;&lt;span style=&quot;background-color: initial;&quot;&gt;&amp;nbsp;No&lt;/span&gt;&lt;span style=&quot;color: rgba(0, 0, 0, 0); font-family: monospace; font-size: 0px; text-align: start; text-wrap: nowrap; background-color: initial;&quot;&gt;%3CmxGraphModel%3E%3Croot%3E%3CmxCell%20id%3D%220%22%2F%3E%3CmxCell%20id%3D%221%22%20parent%3D%220%22%2F%3E%3CmxCell%20id%3D%222%22%20value%3D%22%22%20style%3D%22rounded%3D1%3BwhiteSpace%3Dwrap%3Bhtml%3D1%3Bdashed%3D1%3BstrokeWidth%3D2%3BfillColor%3Dnone%3B%22%20vertex%3D%221%22%20parent%3D%221%22%3E%3CmxGeometry%20x%3D%22390%22%20y%3D%22211%22%20width%3D%22250%22%20height%3D%2218%22%20as%3D%22geometry%22%2F%3E%3C%2FmxCell%3E%3C%2Froot%3E%3C%2FmxGraphModel%3E&lt;/span&gt;&lt;span style=&quot;background-color: initial;&quot;&gt;, [Explanations]&lt;/span&gt;&lt;/div&gt;&lt;/div&gt;&lt;/blockquote&gt;" style="rounded=1;whiteSpace=wrap;html=1;strokeColor=none;fillColor=#CCCCFF;align=left;" parent="1" vertex="1">
          <mxGeometry x="400" y="212" width="250" height="20" as="geometry" />
        </mxCell>
        <mxCell id="EyACuZ3WsZrGH7T3GwWN-15" value="&lt;b&gt;Reply 1:&amp;nbsp;&lt;/b&gt;&lt;b&gt;Blacklist&lt;/b&gt;" style="text;html=1;align=center;verticalAlign=middle;whiteSpace=wrap;rounded=0;" parent="1" vertex="1">
          <mxGeometry x="520" y="202" width="107" height="10" as="geometry" />
        </mxCell>
        <mxCell id="EyACuZ3WsZrGH7T3GwWN-18" value="" style="rounded=1;whiteSpace=wrap;html=1;dashed=1;strokeWidth=2;fillColor=none;" parent="1" vertex="1">
          <mxGeometry x="400" y="213" width="250" height="18" as="geometry" />
        </mxCell>
        <mxCell id="aqZif8_HGldS4bLUTQeX-2" value="" style="shape=image;verticalLabelPosition=bottom;labelBackgroundColor=default;verticalAlign=top;aspect=fixed;imageAspect=0;image=data:image/png,iVBORw0KGgoAAAANSUhEUgAAAPoAAAD6CAYAAACI7Fo9AAAACXBIWXMAAA7EAAAOxAGVKw4bAAAJA0lEQVR4nO3dMYhdWR0G8HmiCBsrA1oIgxBIEJuNTRSmjOkCIsQIVsaBhSzsFAGDTYo0koUsJJCFhdlYx4BNukkKi9lSo4VIRmyms4iVWVCLsRXvP/LPnDtvJu/7/crDfe+d+x4fBz7OeXdxsHawBqy2Lxz3BICjJ+gQQNAhgKBDAEGHAIIOAQQdAgg6BBB0CCDoEEDQIYCgQwBBhwCCDgEEHQIIOgQQdAgg6BBA0CGAoEMAQYcAgg4BBB0CCDoEEHQIIOgQQNAhgKBDAEGHAF887glwOIu1xYl5DO7B2sHiuOfA/2dFhwCCDgEEHQIIOgRQxh2jkULt7Nmzk7H19fXWWNf+/n5rbLF3+PtQ5C2HFR0CCDoEEHQIIOgQYHGwdmI2WK20qnjrFmqVkZJtGbpF3t7e3mRMQTc/KzoEEHQIIOgQQNAhgJ1xR2CkeDvpJVvXyH1UO+0UdGOs6BBA0CGAoEMAQYcAyrhBcxdv1Vi1o6yyjNdWY8vYzaegG2NFhwCCDgEEHQIIOgRQxh2BuYu3kQKsa+Qzuq8dmXN1nJU+KzoEEHQIIOgQQNAhgDLuDcy9C667a61bdo1cN2IZ86u+Z7vl+qzoEEDQIYCgQwBBhwDKuBNmd3d3MtbdFbaxsTEZm7ugm3t+lWUUiGms6BBA0CGAoEMAQYcAyrglqcqkbrF18OLJZGxx7nLrtdWOsqoUm7sAm7ugY4wVHQIIOgQQdAgg6BBAGXcEuv/7VhVW966en4zdv3Wrdd3m5uZk7NT333/tPP9bVYp1y8JqLpWtR88PPRfGWNEhgKBDAEGHAIIOARYHa5O/3eI1uv8Zd5IeNvDq6YPJWFXQnfT76M7Pf8bVrOgQQNAhgKBDAEGHAHbGDXr//KnJ2FbRYR0cHE/puVj0uqmy2DpBc+5+z9Ss6BBA0CGAoEMAQYcAyrg3UB3HvHTp0vTC4jjmv/Y+m4z94pPfTMauX78+Gfv4448nY3fv3p2M3bhxYzqXAdX7dT+3ex+/fO+HrblU3/O96sJHrbeLY0WHAIIOAQQdAgg6BFDGDaoefND1g3e/MRk7c+bMZOx7P/naZGykeOseXa1Un1vNr7qP6n67Rr5nrOgQQdAhgKBDAEGHAMq4I1DtoPvyuelDCf75YvqAhK6qAPv6n740Gfvo0J9Ql2d/+/a/D/1+Fy5cmIxV30v3gRD0WdEhgKBDAEGHAIIOATzAYdD9q99pfYHVMctv/ezO7PP5Xwcvnhz6tYtzl2ecSe3Pn96cjO3s7LRe+8Gj33tYQ5MVHQIIOgQQdAgg6BBAGTeoesJq97/lqqOX71THMaux/f3mDJegOb/Pi7H9Yqwq47aK/+Hz5NQ+KzoEEHQIIOgQQNAhgGOqR+CPp4pjlkXBVBZ0xfu9MzCX+7duHfq1H9y+3bru893ecdtu8VZ+f2vTMo4+KzoEEHQIIOgQQNAhgJ1xb6DaBXfx4sXJddWOt6qIunz6ZetzNzc3W9eVu+pmVu1uq2xvb7eue/Ly9GSs+/09e/ZsMma3XM2KDgEEHQIIOgQQdAhgZ9ygkad8Pnj+qndhs9jqHoXt6u5kq1QlW/V+6+vd6zxNdYQVHQIIOgQQdAgg6BBAGfca3V1wlapM6hZM1XXt0m6tV5SN6M6lKtm699st3qrfY/Fs+rvZLWdFhwiCDgEEHQIIOgRQxq2NHT+d297e3qFfu3XjrzPO5DUenWldVt3HyJHeSvVaBV3Nig4BBB0CCDoEEHQIEFfGzV28jeyCq/7zrJpL9X4bGxuTsYfv9YqytU+K0q752mvXrk3GdosHOIzc7wjHWWtWdAgg6BBA0CGAoEOAlS7jTlLx1tV9bVWAVUXZw4cPW59R7UUbKd7m/g7slhtjRYcAgg4BBB0CCDoEWOkyrnJcxdvIrrDu51ZF2Yhu8dadX3W/dssthxUdAgg6BBB0CCDoEGBlyrjjeuBC9/26Rgq16ujqyH/QVe/XvbdukTdiZLdcGis6BBB0CCDoEEDQIcDKlHGV7i6uuY+ajjy8YBk7xebWvY+q3BvZLTdSeqYdXbWiQwBBhwCCDgEEHQKsdBlXGdlN1S3yup87UiYd126vkf9zm/sYLX1WdAgg6BBA0CGAoEOAuDKu2rV29uzZI//caldYZeRYadd3f/vRZOzwtWDfMr6DuXc5rgorOgQQdAgg6BBA0CHASpdxIzvPRty7en4ytlU81bRr7l11t2//fDL26zs3J2Nz72Srnuxaqb6/Jy9nnUocKzoEEHQIIOgQQNAhwEqXcSfJq6cPJmM/ffaPyVhVilU7u7q7vapdZru7f2i9truTrSoGq8/90c07k7FfXfzKZGx7e7v1uZXqc7v3scqs6BBA0CGAoEMAQYcAK13Gjewem3tXXf1+X229tnqgwYiNjXdb13V3so1Yxu7FuXcWvo2s6BBA0CGAoEMAQYcAK13GVbukqqdjLvamT9GsdHejbT16Phm7V134zR9Phnb+Mj2PWe0Uq46aVjveunOuPrcqrKoi79atDydjm5ubk7HqPnZ2diZjT16efu08D6O7c29VnpxasaJDAEGHAIIOAQQdAqxMGVeWbGu9km1u1QMhPiuKt6qwqoqjS5cuzTOxI1LNr7qPuqAr3vDl09b7zV22rjIrOgQQdAgg6BBA0CHAypRxI+beLTdyBLLaKVaVWF3r672jsNV13fuovoNqF9zIfTDGig4BBB0CCDoEEHQIsNJl3Mixw7l3WFUPZkhTFXR//928u+C6VvlIasWKDgEEHQIIOgQQdAiwOFiLP8E3ZOQobLcQunrzw7fuR6rKx+r4blWyVdLKs7lZ0SGAoEMAQYcAgg4BlHFLUpV2x/U/dyOl2NyUbMthRYcAgg4BBB0CCDoEUMYdo6p4u3LlyuS67hNRq+Odjx8/PsTMljcXZdxyWNEhgKBDAEGHAIIOAVb6P+PeRt2ya8QyduQt4z7os6JDAEGHAIIOAQQdAtgZd4yWcSS1clzHY7tzYX5WdAgg6BBA0CGAoEMAZRwEsKJDAEGHAIIOAQQdAgg6BBB0CCDoEEDQIYCgQwBBhwCCDgEEHQIIOgQQdAjwH8cV9ZEMMgoVAAAAAElFTkSuQmCC;" parent="1" vertex="1">
          <mxGeometry x="130" y="192" width="40" height="40" as="geometry" />
        </mxCell>
        <mxCell id="aqZif8_HGldS4bLUTQeX-4" value="" style="shape=image;verticalLabelPosition=bottom;labelBackgroundColor=default;verticalAlign=top;aspect=fixed;imageAspect=0;image=data:image/png,iVBORw0KGgoAAAANSUhEUgAAAPoAAAD6CAYAAACI7Fo9AAAACXBIWXMAAA7EAAAOxAGVKw4bAAAJA0lEQVR4nO3dMYhdWR0G8HmiCBsrA1oIgxBIEJuNTRSmjOkCIsQIVsaBhSzsFAGDTYo0koUsJJCFhdlYx4BNukkKi9lSo4VIRmyms4iVWVCLsRXvP/LPnDtvJu/7/crDfe+d+x4fBz7OeXdxsHawBqy2Lxz3BICjJ+gQQNAhgKBDAEGHAIIOAQQdAgg6BBB0CCDoEEDQIYCgQwBBhwCCDgEEHQIIOgQQdAgg6BBA0CGAoEMAQYcAgg4BBB0CCDoEEHQIIOgQQNAhgKBDAEGHAF887glwOIu1xYl5DO7B2sHiuOfA/2dFhwCCDgEEHQIIOgRQxh2jkULt7Nmzk7H19fXWWNf+/n5rbLF3+PtQ5C2HFR0CCDoEEHQIIOgQYHGwdmI2WK20qnjrFmqVkZJtGbpF3t7e3mRMQTc/KzoEEHQIIOgQQNAhgJ1xR2CkeDvpJVvXyH1UO+0UdGOs6BBA0CGAoEMAQYcAyrhBcxdv1Vi1o6yyjNdWY8vYzaegG2NFhwCCDgEEHQIIOgRQxh2BuYu3kQKsa+Qzuq8dmXN1nJU+KzoEEHQIIOgQQNAhgDLuDcy9C667a61bdo1cN2IZ86u+Z7vl+qzoEEDQIYCgQwBBhwDKuBNmd3d3MtbdFbaxsTEZm7ugm3t+lWUUiGms6BBA0CGAoEMAQYcAyrglqcqkbrF18OLJZGxx7nLrtdWOsqoUm7sAm7ugY4wVHQIIOgQQdAgg6BBAGXcEuv/7VhVW966en4zdv3Wrdd3m5uZk7NT333/tPP9bVYp1y8JqLpWtR88PPRfGWNEhgKBDAEGHAIIOARYHa5O/3eI1uv8Zd5IeNvDq6YPJWFXQnfT76M7Pf8bVrOgQQNAhgKBDAEGHAHbGDXr//KnJ2FbRYR0cHE/puVj0uqmy2DpBc+5+z9Ss6BBA0CGAoEMAQYcAyrg3UB3HvHTp0vTC4jjmv/Y+m4z94pPfTMauX78+Gfv4448nY3fv3p2M3bhxYzqXAdX7dT+3ex+/fO+HrblU3/O96sJHrbeLY0WHAIIOAQQdAgg6BFDGDaoefND1g3e/MRk7c+bMZOx7P/naZGykeOseXa1Un1vNr7qP6n67Rr5nrOgQQdAhgKBDAEGHAMq4I1DtoPvyuelDCf75YvqAhK6qAPv6n740Gfvo0J9Ql2d/+/a/D/1+Fy5cmIxV30v3gRD0WdEhgKBDAEGHAIIOATzAYdD9q99pfYHVMctv/ezO7PP5Xwcvnhz6tYtzl2ecSe3Pn96cjO3s7LRe+8Gj33tYQ5MVHQIIOgQQdAgg6BBAGTeoesJq97/lqqOX71THMaux/f3mDJegOb/Pi7H9Yqwq47aK/+Hz5NQ+KzoEEHQIIOgQQNAhgGOqR+CPp4pjlkXBVBZ0xfu9MzCX+7duHfq1H9y+3bru893ecdtu8VZ+f2vTMo4+KzoEEHQIIOgQQNAhgJ1xb6DaBXfx4sXJddWOt6qIunz6ZetzNzc3W9eVu+pmVu1uq2xvb7eue/Ly9GSs+/09e/ZsMma3XM2KDgEEHQIIOgQQdAhgZ9ygkad8Pnj+qndhs9jqHoXt6u5kq1QlW/V+6+vd6zxNdYQVHQIIOgQQdAgg6BBAGfca3V1wlapM6hZM1XXt0m6tV5SN6M6lKtm699st3qrfY/Fs+rvZLWdFhwiCDgEEHQIIOgRQxq2NHT+d297e3qFfu3XjrzPO5DUenWldVt3HyJHeSvVaBV3Nig4BBB0CCDoEEHQIEFfGzV28jeyCq/7zrJpL9X4bGxuTsYfv9YqytU+K0q752mvXrk3GdosHOIzc7wjHWWtWdAgg6BBA0CGAoEOAlS7jTlLx1tV9bVWAVUXZw4cPW59R7UUbKd7m/g7slhtjRYcAgg4BBB0CCDoEWOkyrnJcxdvIrrDu51ZF2Yhu8dadX3W/dssthxUdAgg6BBB0CCDoEGBlyrjjeuBC9/26Rgq16ujqyH/QVe/XvbdukTdiZLdcGis6BBB0CCDoEEDQIcDKlHGV7i6uuY+ajjy8YBk7xebWvY+q3BvZLTdSeqYdXbWiQwBBhwCCDgEEHQKsdBlXGdlN1S3yup87UiYd126vkf9zm/sYLX1WdAgg6BBA0CGAoEOAuDKu2rV29uzZI//caldYZeRYadd3f/vRZOzwtWDfMr6DuXc5rgorOgQQdAgg6BBA0CHASpdxIzvPRty7en4ytlU81bRr7l11t2//fDL26zs3J2Nz72Srnuxaqb6/Jy9nnUocKzoEEHQIIOgQQNAhwEqXcSfJq6cPJmM/ffaPyVhVilU7u7q7vapdZru7f2i9truTrSoGq8/90c07k7FfXfzKZGx7e7v1uZXqc7v3scqs6BBA0CGAoEMAQYcAK13Gjewem3tXXf1+X229tnqgwYiNjXdb13V3so1Yxu7FuXcWvo2s6BBA0CGAoEMAQYcAK13GVbukqqdjLvamT9GsdHejbT16Phm7V134zR9Phnb+Mj2PWe0Uq46aVjveunOuPrcqrKoi79atDydjm5ubk7HqPnZ2diZjT16efu08D6O7c29VnpxasaJDAEGHAIIOAQQdAqxMGVeWbGu9km1u1QMhPiuKt6qwqoqjS5cuzTOxI1LNr7qPuqAr3vDl09b7zV22rjIrOgQQdAgg6BBA0CHAypRxI+beLTdyBLLaKVaVWF3r672jsNV13fuovoNqF9zIfTDGig4BBB0CCDoEEHQIsNJl3Mixw7l3WFUPZkhTFXR//928u+C6VvlIasWKDgEEHQIIOgQQdAiwOFiLP8E3ZOQobLcQunrzw7fuR6rKx+r4blWyVdLKs7lZ0SGAoEMAQYcAgg4BlHFLUpV2x/U/dyOl2NyUbMthRYcAgg4BBB0CCDoEUMYdo6p4u3LlyuS67hNRq+Odjx8/PsTMljcXZdxyWNEhgKBDAEGHAIIOAVb6P+PeRt2ya8QyduQt4z7os6JDAEGHAIIOAQQdAtgZd4yWcSS1clzHY7tzYX5WdAgg6BBA0CGAoEMAZRwEsKJDAEGHAIIOAQQdAgg6BBB0CCDoEEDQIYCgQwBBhwCCDgEEHQIIOgQQdAjwH8cV9ZEMMgoVAAAAAElFTkSuQmCC;" parent="1" vertex="1">
          <mxGeometry x="620" y="192" width="40" height="40" as="geometry" />
        </mxCell>
        <mxCell id="aqZif8_HGldS4bLUTQeX-21" value="" style="endArrow=classicThin;html=1;rounded=0;endFill=1;" parent="1" edge="1">
          <mxGeometry width="50" height="50" relative="1" as="geometry">
            <mxPoint x="431" y="230" as="sourcePoint" />
            <mxPoint x="431" y="250" as="targetPoint" />
          </mxGeometry>
        </mxCell>
        <mxCell id="N2usLRuaXVRc8HSE8ele-1" value="&lt;div style=&quot;text-align: justify; padding-left: 5px; padding-right: 5px;&quot;&gt;&lt;div&gt;&lt;strong style=&quot;background-color: initial;&quot; data-end=&quot;80&quot; data-start=&quot;74&quot;&gt;&lt;br&gt;&lt;/strong&gt;&lt;/div&gt;&lt;div&gt;&lt;strong style=&quot;background-color: initial;&quot; data-end=&quot;80&quot; data-start=&quot;74&quot;&gt;Q:&lt;/strong&gt;&lt;span style=&quot;background-color: initial;&quot;&gt;&amp;nbsp;Given the portfolio of wallet, did the wallet have too many tokens transferred from other wallets?&lt;br&gt;&lt;/span&gt;&lt;/div&gt;&lt;div&gt;- Wallet portfolio&lt;span style=&quot;background-color: initial;&quot;&gt;:&amp;nbsp;&lt;/span&gt;&lt;span style=&quot;background-color: initial; color: rgb(0, 0, 255);&quot;&gt;{&lt;/span&gt;&lt;i style=&quot;background-color: initial; color: rgb(0, 0, 255);&quot;&gt;portfolio&lt;/i&gt;&lt;span style=&quot;background-color: initial; color: rgb(0, 0, 255);&quot;&gt;}&lt;/span&gt;&lt;/div&gt;&lt;div&gt;&lt;span style=&quot;background-color: initial;&quot;&gt;&lt;br&gt;&lt;/span&gt;&lt;/div&gt;&lt;/div&gt;" style="rounded=1;whiteSpace=wrap;html=1;strokeColor=none;fillColor=#CCCCFF;align=left;" vertex="1" parent="1">
          <mxGeometry x="140" y="250" width="510" height="60" as="geometry" />
        </mxCell>
        <mxCell id="N2usLRuaXVRc8HSE8ele-2" value="" style="shape=image;verticalLabelPosition=bottom;labelBackgroundColor=default;verticalAlign=top;aspect=fixed;imageAspect=0;image=https://openclipart.org/image/800px/247320;" vertex="1" parent="1">
          <mxGeometry x="137" y="235" width="26" height="26" as="geometry" />
        </mxCell>
        <mxCell id="N2usLRuaXVRc8HSE8ele-3" value="&lt;blockquote style=&quot;margin: 0 0 0 40px; border: none; padding: 0px;&quot;&gt;&lt;div style=&quot;text-align: justify; padding-left: 5px; padding-right: 5px;&quot;&gt;&lt;div&gt;&lt;strong style=&quot;background-color: initial;&quot; data-end=&quot;80&quot; data-start=&quot;74&quot;&gt;&lt;span style=&quot;white-space: pre;&quot;&gt;&#x9;&lt;/span&gt;A:&lt;/strong&gt;&lt;span style=&quot;background-color: initial;&quot;&gt;&amp;nbsp;Yes, [Explanations]&lt;/span&gt;&lt;/div&gt;&lt;/div&gt;&lt;/blockquote&gt;" style="rounded=1;whiteSpace=wrap;html=1;strokeColor=none;fillColor=#CCCCFF;align=left;" vertex="1" parent="1">
          <mxGeometry x="140" y="332" width="250" height="20" as="geometry" />
        </mxCell>
        <mxCell id="N2usLRuaXVRc8HSE8ele-4" value="&lt;b&gt;Prompt 2: # of non-bought tokens&lt;/b&gt;" style="text;html=1;align=center;verticalAlign=middle;whiteSpace=wrap;rounded=0;" vertex="1" parent="1">
          <mxGeometry x="156.5" y="240" width="203.5" height="10" as="geometry" />
        </mxCell>
        <mxCell id="N2usLRuaXVRc8HSE8ele-5" value="&lt;b&gt;Reply 2:&amp;nbsp;&lt;/b&gt;&lt;b&gt;# of non-bought tokens&lt;/b&gt;" style="text;html=1;align=center;verticalAlign=middle;whiteSpace=wrap;rounded=0;" vertex="1" parent="1">
          <mxGeometry x="156.5" y="322" width="193.5" height="10" as="geometry" />
        </mxCell>
        <mxCell id="N2usLRuaXVRc8HSE8ele-6" value="" style="rounded=1;whiteSpace=wrap;html=1;dashed=1;strokeWidth=2;fillColor=none;" vertex="1" parent="1">
          <mxGeometry x="140" y="333" width="250" height="18" as="geometry" />
        </mxCell>
        <mxCell id="N2usLRuaXVRc8HSE8ele-7" value="&lt;blockquote style=&quot;margin: 0 0 0 40px; border: none; padding: 0px;&quot;&gt;&lt;div style=&quot;text-align: justify; padding-left: 5px; padding-right: 5px;&quot;&gt;&lt;div&gt;&lt;strong style=&quot;background-color: initial;&quot; data-end=&quot;80&quot; data-start=&quot;74&quot;&gt;&lt;span style=&quot;white-space: pre;&quot;&gt;&#x9;&lt;/span&gt;A:&lt;/strong&gt;&lt;span style=&quot;background-color: initial;&quot;&gt;&amp;nbsp;No&lt;/span&gt;&lt;span style=&quot;color: rgba(0, 0, 0, 0); font-family: monospace; font-size: 0px; text-align: start; text-wrap: nowrap; background-color: initial;&quot;&gt;%3CmxGraphModel%3E%3Croot%3E%3CmxCell%20id%3D%220%22%2F%3E%3CmxCell%20id%3D%221%22%20parent%3D%220%22%2F%3E%3CmxCell%20id%3D%222%22%20value%3D%22%22%20style%3D%22rounded%3D1%3BwhiteSpace%3Dwrap%3Bhtml%3D1%3Bdashed%3D1%3BstrokeWidth%3D2%3BfillColor%3Dnone%3B%22%20vertex%3D%221%22%20parent%3D%221%22%3E%3CmxGeometry%20x%3D%22390%22%20y%3D%22211%22%20width%3D%22250%22%20height%3D%2218%22%20as%3D%22geometry%22%2F%3E%3C%2FmxCell%3E%3C%2Froot%3E%3C%2FmxGraphModel%3E&lt;/span&gt;&lt;span style=&quot;background-color: initial;&quot;&gt;, [Explanations]&lt;/span&gt;&lt;/div&gt;&lt;/div&gt;&lt;/blockquote&gt;" style="rounded=1;whiteSpace=wrap;html=1;strokeColor=none;fillColor=#CCCCFF;align=left;" vertex="1" parent="1">
          <mxGeometry x="400" y="332" width="250" height="20" as="geometry" />
        </mxCell>
        <mxCell id="N2usLRuaXVRc8HSE8ele-8" value="&lt;b&gt;Reply 2:&amp;nbsp;&lt;/b&gt;&lt;b&gt;# of non-bought tokens&lt;/b&gt;" style="text;html=1;align=center;verticalAlign=middle;whiteSpace=wrap;rounded=0;" vertex="1" parent="1">
          <mxGeometry x="440" y="322" width="187" height="10" as="geometry" />
        </mxCell>
        <mxCell id="N2usLRuaXVRc8HSE8ele-9" value="" style="rounded=1;whiteSpace=wrap;html=1;dashed=1;strokeWidth=2;fillColor=none;" vertex="1" parent="1">
          <mxGeometry x="400" y="333" width="250" height="18" as="geometry" />
        </mxCell>
        <mxCell id="N2usLRuaXVRc8HSE8ele-10" value="" style="shape=image;verticalLabelPosition=bottom;labelBackgroundColor=default;verticalAlign=top;aspect=fixed;imageAspect=0;image=data:image/png,iVBORw0KGgoAAAANSUhEUgAAAPoAAAD6CAYAAACI7Fo9AAAACXBIWXMAAA7EAAAOxAGVKw4bAAAJA0lEQVR4nO3dMYhdWR0G8HmiCBsrA1oIgxBIEJuNTRSmjOkCIsQIVsaBhSzsFAGDTYo0koUsJJCFhdlYx4BNukkKi9lSo4VIRmyms4iVWVCLsRXvP/LPnDtvJu/7/crDfe+d+x4fBz7OeXdxsHawBqy2Lxz3BICjJ+gQQNAhgKBDAEGHAIIOAQQdAgg6BBB0CCDoEEDQIYCgQwBBhwCCDgEEHQIIOgQQdAgg6BBA0CGAoEMAQYcAgg4BBB0CCDoEEHQIIOgQQNAhgKBDAEGHAF887glwOIu1xYl5DO7B2sHiuOfA/2dFhwCCDgEEHQIIOgRQxh2jkULt7Nmzk7H19fXWWNf+/n5rbLF3+PtQ5C2HFR0CCDoEEHQIIOgQYHGwdmI2WK20qnjrFmqVkZJtGbpF3t7e3mRMQTc/KzoEEHQIIOgQQNAhgJ1xR2CkeDvpJVvXyH1UO+0UdGOs6BBA0CGAoEMAQYcAyrhBcxdv1Vi1o6yyjNdWY8vYzaegG2NFhwCCDgEEHQIIOgRQxh2BuYu3kQKsa+Qzuq8dmXN1nJU+KzoEEHQIIOgQQNAhgDLuDcy9C667a61bdo1cN2IZ86u+Z7vl+qzoEEDQIYCgQwBBhwDKuBNmd3d3MtbdFbaxsTEZm7ugm3t+lWUUiGms6BBA0CGAoEMAQYcAyrglqcqkbrF18OLJZGxx7nLrtdWOsqoUm7sAm7ugY4wVHQIIOgQQdAgg6BBAGXcEuv/7VhVW966en4zdv3Wrdd3m5uZk7NT333/tPP9bVYp1y8JqLpWtR88PPRfGWNEhgKBDAEGHAIIOARYHa5O/3eI1uv8Zd5IeNvDq6YPJWFXQnfT76M7Pf8bVrOgQQNAhgKBDAEGHAHbGDXr//KnJ2FbRYR0cHE/puVj0uqmy2DpBc+5+z9Ss6BBA0CGAoEMAQYcAyrg3UB3HvHTp0vTC4jjmv/Y+m4z94pPfTMauX78+Gfv4448nY3fv3p2M3bhxYzqXAdX7dT+3ex+/fO+HrblU3/O96sJHrbeLY0WHAIIOAQQdAgg6BFDGDaoefND1g3e/MRk7c+bMZOx7P/naZGykeOseXa1Un1vNr7qP6n67Rr5nrOgQQdAhgKBDAEGHAMq4I1DtoPvyuelDCf75YvqAhK6qAPv6n740Gfvo0J9Ql2d/+/a/D/1+Fy5cmIxV30v3gRD0WdEhgKBDAEGHAIIOATzAYdD9q99pfYHVMctv/ezO7PP5Xwcvnhz6tYtzl2ecSe3Pn96cjO3s7LRe+8Gj33tYQ5MVHQIIOgQQdAgg6BBAGTeoesJq97/lqqOX71THMaux/f3mDJegOb/Pi7H9Yqwq47aK/+Hz5NQ+KzoEEHQIIOgQQNAhgGOqR+CPp4pjlkXBVBZ0xfu9MzCX+7duHfq1H9y+3bru893ecdtu8VZ+f2vTMo4+KzoEEHQIIOgQQNAhgJ1xb6DaBXfx4sXJddWOt6qIunz6ZetzNzc3W9eVu+pmVu1uq2xvb7eue/Ly9GSs+/09e/ZsMma3XM2KDgEEHQIIOgQQdAhgZ9ygkad8Pnj+qndhs9jqHoXt6u5kq1QlW/V+6+vd6zxNdYQVHQIIOgQQdAgg6BBAGfca3V1wlapM6hZM1XXt0m6tV5SN6M6lKtm699st3qrfY/Fs+rvZLWdFhwiCDgEEHQIIOgRQxq2NHT+d297e3qFfu3XjrzPO5DUenWldVt3HyJHeSvVaBV3Nig4BBB0CCDoEEHQIEFfGzV28jeyCq/7zrJpL9X4bGxuTsYfv9YqytU+K0q752mvXrk3GdosHOIzc7wjHWWtWdAgg6BBA0CGAoEOAlS7jTlLx1tV9bVWAVUXZw4cPW59R7UUbKd7m/g7slhtjRYcAgg4BBB0CCDoEWOkyrnJcxdvIrrDu51ZF2Yhu8dadX3W/dssthxUdAgg6BBB0CCDoEGBlyrjjeuBC9/26Rgq16ujqyH/QVe/XvbdukTdiZLdcGis6BBB0CCDoEEDQIcDKlHGV7i6uuY+ajjy8YBk7xebWvY+q3BvZLTdSeqYdXbWiQwBBhwCCDgEEHQKsdBlXGdlN1S3yup87UiYd126vkf9zm/sYLX1WdAgg6BBA0CGAoEOAuDKu2rV29uzZI//caldYZeRYadd3f/vRZOzwtWDfMr6DuXc5rgorOgQQdAgg6BBA0CHASpdxIzvPRty7en4ytlU81bRr7l11t2//fDL26zs3J2Nz72Srnuxaqb6/Jy9nnUocKzoEEHQIIOgQQNAhwEqXcSfJq6cPJmM/ffaPyVhVilU7u7q7vapdZru7f2i9truTrSoGq8/90c07k7FfXfzKZGx7e7v1uZXqc7v3scqs6BBA0CGAoEMAQYcAK13Gjewem3tXXf1+X229tnqgwYiNjXdb13V3so1Yxu7FuXcWvo2s6BBA0CGAoEMAQYcAK13GVbukqqdjLvamT9GsdHejbT16Phm7V134zR9Phnb+Mj2PWe0Uq46aVjveunOuPrcqrKoi79atDydjm5ubk7HqPnZ2diZjT16efu08D6O7c29VnpxasaJDAEGHAIIOAQQdAqxMGVeWbGu9km1u1QMhPiuKt6qwqoqjS5cuzTOxI1LNr7qPuqAr3vDl09b7zV22rjIrOgQQdAgg6BBA0CHAypRxI+beLTdyBLLaKVaVWF3r672jsNV13fuovoNqF9zIfTDGig4BBB0CCDoEEHQIsNJl3Mixw7l3WFUPZkhTFXR//928u+C6VvlIasWKDgEEHQIIOgQQdAiwOFiLP8E3ZOQobLcQunrzw7fuR6rKx+r4blWyVdLKs7lZ0SGAoEMAQYcAgg4BlHFLUpV2x/U/dyOl2NyUbMthRYcAgg4BBB0CCDoEUMYdo6p4u3LlyuS67hNRq+Odjx8/PsTMljcXZdxyWNEhgKBDAEGHAIIOAVb6P+PeRt2ya8QyduQt4z7os6JDAEGHAIIOAQQdAtgZd4yWcSS1clzHY7tzYX5WdAgg6BBA0CGAoEMAZRwEsKJDAEGHAIIOAQQdAgg6BBB0CCDoEEDQIYCgQwBBhwCCDgEEHQIIOgQQdAjwH8cV9ZEMMgoVAAAAAElFTkSuQmCC;" vertex="1" parent="1">
          <mxGeometry x="130" y="312" width="40" height="40" as="geometry" />
        </mxCell>
        <mxCell id="N2usLRuaXVRc8HSE8ele-11" value="" style="shape=image;verticalLabelPosition=bottom;labelBackgroundColor=default;verticalAlign=top;aspect=fixed;imageAspect=0;image=data:image/png,iVBORw0KGgoAAAANSUhEUgAAAPoAAAD6CAYAAACI7Fo9AAAACXBIWXMAAA7EAAAOxAGVKw4bAAAJA0lEQVR4nO3dMYhdWR0G8HmiCBsrA1oIgxBIEJuNTRSmjOkCIsQIVsaBhSzsFAGDTYo0koUsJJCFhdlYx4BNukkKi9lSo4VIRmyms4iVWVCLsRXvP/LPnDtvJu/7/crDfe+d+x4fBz7OeXdxsHawBqy2Lxz3BICjJ+gQQNAhgKBDAEGHAIIOAQQdAgg6BBB0CCDoEEDQIYCgQwBBhwCCDgEEHQIIOgQQdAgg6BBA0CGAoEMAQYcAgg4BBB0CCDoEEHQIIOgQQNAhgKBDAEGHAF887glwOIu1xYl5DO7B2sHiuOfA/2dFhwCCDgEEHQIIOgRQxh2jkULt7Nmzk7H19fXWWNf+/n5rbLF3+PtQ5C2HFR0CCDoEEHQIIOgQYHGwdmI2WK20qnjrFmqVkZJtGbpF3t7e3mRMQTc/KzoEEHQIIOgQQNAhgJ1xR2CkeDvpJVvXyH1UO+0UdGOs6BBA0CGAoEMAQYcAyrhBcxdv1Vi1o6yyjNdWY8vYzaegG2NFhwCCDgEEHQIIOgRQxh2BuYu3kQKsa+Qzuq8dmXN1nJU+KzoEEHQIIOgQQNAhgDLuDcy9C667a61bdo1cN2IZ86u+Z7vl+qzoEEDQIYCgQwBBhwDKuBNmd3d3MtbdFbaxsTEZm7ugm3t+lWUUiGms6BBA0CGAoEMAQYcAyrglqcqkbrF18OLJZGxx7nLrtdWOsqoUm7sAm7ugY4wVHQIIOgQQdAgg6BBAGXcEuv/7VhVW966en4zdv3Wrdd3m5uZk7NT333/tPP9bVYp1y8JqLpWtR88PPRfGWNEhgKBDAEGHAIIOARYHa5O/3eI1uv8Zd5IeNvDq6YPJWFXQnfT76M7Pf8bVrOgQQNAhgKBDAEGHAHbGDXr//KnJ2FbRYR0cHE/puVj0uqmy2DpBc+5+z9Ss6BBA0CGAoEMAQYcAyrg3UB3HvHTp0vTC4jjmv/Y+m4z94pPfTMauX78+Gfv4448nY3fv3p2M3bhxYzqXAdX7dT+3ex+/fO+HrblU3/O96sJHrbeLY0WHAIIOAQQdAgg6BFDGDaoefND1g3e/MRk7c+bMZOx7P/naZGykeOseXa1Un1vNr7qP6n67Rr5nrOgQQdAhgKBDAEGHAMq4I1DtoPvyuelDCf75YvqAhK6qAPv6n740Gfvo0J9Ql2d/+/a/D/1+Fy5cmIxV30v3gRD0WdEhgKBDAEGHAIIOATzAYdD9q99pfYHVMctv/ezO7PP5Xwcvnhz6tYtzl2ecSe3Pn96cjO3s7LRe+8Gj33tYQ5MVHQIIOgQQdAgg6BBAGTeoesJq97/lqqOX71THMaux/f3mDJegOb/Pi7H9Yqwq47aK/+Hz5NQ+KzoEEHQIIOgQQNAhgGOqR+CPp4pjlkXBVBZ0xfu9MzCX+7duHfq1H9y+3bru893ecdtu8VZ+f2vTMo4+KzoEEHQIIOgQQNAhgJ1xb6DaBXfx4sXJddWOt6qIunz6ZetzNzc3W9eVu+pmVu1uq2xvb7eue/Ly9GSs+/09e/ZsMma3XM2KDgEEHQIIOgQQdAhgZ9ygkad8Pnj+qndhs9jqHoXt6u5kq1QlW/V+6+vd6zxNdYQVHQIIOgQQdAgg6BBAGfca3V1wlapM6hZM1XXt0m6tV5SN6M6lKtm699st3qrfY/Fs+rvZLWdFhwiCDgEEHQIIOgRQxq2NHT+d297e3qFfu3XjrzPO5DUenWldVt3HyJHeSvVaBV3Nig4BBB0CCDoEEHQIEFfGzV28jeyCq/7zrJpL9X4bGxuTsYfv9YqytU+K0q752mvXrk3GdosHOIzc7wjHWWtWdAgg6BBA0CGAoEOAlS7jTlLx1tV9bVWAVUXZw4cPW59R7UUbKd7m/g7slhtjRYcAgg4BBB0CCDoEWOkyrnJcxdvIrrDu51ZF2Yhu8dadX3W/dssthxUdAgg6BBB0CCDoEGBlyrjjeuBC9/26Rgq16ujqyH/QVe/XvbdukTdiZLdcGis6BBB0CCDoEEDQIcDKlHGV7i6uuY+ajjy8YBk7xebWvY+q3BvZLTdSeqYdXbWiQwBBhwCCDgEEHQKsdBlXGdlN1S3yup87UiYd126vkf9zm/sYLX1WdAgg6BBA0CGAoEOAuDKu2rV29uzZI//caldYZeRYadd3f/vRZOzwtWDfMr6DuXc5rgorOgQQdAgg6BBA0CHASpdxIzvPRty7en4ytlU81bRr7l11t2//fDL26zs3J2Nz72Srnuxaqb6/Jy9nnUocKzoEEHQIIOgQQNAhwEqXcSfJq6cPJmM/ffaPyVhVilU7u7q7vapdZru7f2i9truTrSoGq8/90c07k7FfXfzKZGx7e7v1uZXqc7v3scqs6BBA0CGAoEMAQYcAK13Gjewem3tXXf1+X229tnqgwYiNjXdb13V3so1Yxu7FuXcWvo2s6BBA0CGAoEMAQYcAK13GVbukqqdjLvamT9GsdHejbT16Phm7V134zR9Phnb+Mj2PWe0Uq46aVjveunOuPrcqrKoi79atDydjm5ubk7HqPnZ2diZjT16efu08D6O7c29VnpxasaJDAEGHAIIOAQQdAqxMGVeWbGu9km1u1QMhPiuKt6qwqoqjS5cuzTOxI1LNr7qPuqAr3vDl09b7zV22rjIrOgQQdAgg6BBA0CHAypRxI+beLTdyBLLaKVaVWF3r672jsNV13fuovoNqF9zIfTDGig4BBB0CCDoEEHQIsNJl3Mixw7l3WFUPZkhTFXR//928u+C6VvlIasWKDgEEHQIIOgQQdAiwOFiLP8E3ZOQobLcQunrzw7fuR6rKx+r4blWyVdLKs7lZ0SGAoEMAQYcAgg4BlHFLUpV2x/U/dyOl2NyUbMthRYcAgg4BBB0CCDoEUMYdo6p4u3LlyuS67hNRq+Odjx8/PsTMljcXZdxyWNEhgKBDAEGHAIIOAVb6P+PeRt2ya8QyduQt4z7os6JDAEGHAIIOAQQdAtgZd4yWcSS1clzHY7tzYX5WdAgg6BBA0CGAoEMAZRwEsKJDAEGHAIIOAQQdAgg6BBB0CCDoEEDQIYCgQwBBhwCCDgEEHQIIOgQQdAjwH8cV9ZEMMgoVAAAAAElFTkSuQmCC;" vertex="1" parent="1">
          <mxGeometry x="620" y="312" width="40" height="40" as="geometry" />
        </mxCell>
        <mxCell id="N2usLRuaXVRc8HSE8ele-12" value="" style="endArrow=classicThin;html=1;rounded=0;endFill=1;" edge="1" parent="1">
          <mxGeometry width="50" height="50" relative="1" as="geometry">
            <mxPoint x="431" y="350" as="sourcePoint" />
            <mxPoint x="431" y="370" as="targetPoint" />
          </mxGeometry>
        </mxCell>
        <mxCell id="N2usLRuaXVRc8HSE8ele-15" value="&lt;div style=&quot;text-align: justify; padding-left: 5px; padding-right: 5px;&quot;&gt;&lt;div&gt;&lt;strong style=&quot;background-color: initial;&quot; data-end=&quot;80&quot; data-start=&quot;74&quot;&gt;&lt;br&gt;&lt;/strong&gt;&lt;/div&gt;&lt;div&gt;&lt;strong style=&quot;background-color: initial;&quot; data-end=&quot;80&quot; data-start=&quot;74&quot;&gt;Q:&lt;/strong&gt;&lt;span style=&quot;background-color: initial;&quot;&gt;&amp;nbsp;Given the wallet&#39;s transaction records, was the number of tokens sold by this wallet greater then that of tokens bought?&lt;br&gt;&lt;/span&gt;&lt;/div&gt;&lt;div&gt;- Transaction records&lt;span style=&quot;background-color: initial;&quot;&gt;:&amp;nbsp;&lt;/span&gt;&lt;span style=&quot;background-color: initial; color: rgb(0, 0, 255);&quot;&gt;{&lt;/span&gt;&lt;i style=&quot;background-color: initial; color: rgb(0, 0, 255);&quot;&gt;records&lt;/i&gt;&lt;span style=&quot;background-color: initial; color: rgb(0, 0, 255);&quot;&gt;}&lt;/span&gt;&lt;/div&gt;&lt;div&gt;&lt;span style=&quot;background-color: initial;&quot;&gt;&lt;br&gt;&lt;/span&gt;&lt;/div&gt;&lt;/div&gt;" style="rounded=1;whiteSpace=wrap;html=1;strokeColor=none;fillColor=#CCCCFF;align=left;" vertex="1" parent="1">
          <mxGeometry x="140" y="370" width="510" height="60" as="geometry" />
        </mxCell>
        <mxCell id="N2usLRuaXVRc8HSE8ele-16" value="" style="shape=image;verticalLabelPosition=bottom;labelBackgroundColor=default;verticalAlign=top;aspect=fixed;imageAspect=0;image=https://openclipart.org/image/800px/247320;" vertex="1" parent="1">
          <mxGeometry x="137" y="355" width="26" height="26" as="geometry" />
        </mxCell>
        <mxCell id="N2usLRuaXVRc8HSE8ele-17" value="&lt;blockquote style=&quot;margin: 0 0 0 40px; border: none; padding: 0px;&quot;&gt;&lt;div style=&quot;text-align: justify; padding-left: 5px; padding-right: 5px;&quot;&gt;&lt;div&gt;&lt;strong style=&quot;background-color: initial;&quot; data-end=&quot;80&quot; data-start=&quot;74&quot;&gt;&lt;span style=&quot;white-space: pre;&quot;&gt;&#x9;&lt;/span&gt;A:&lt;/strong&gt;&lt;span style=&quot;background-color: initial;&quot;&gt;&amp;nbsp;Yes, [Explanations]&lt;/span&gt;&lt;/div&gt;&lt;/div&gt;&lt;/blockquote&gt;" style="rounded=1;whiteSpace=wrap;html=1;strokeColor=none;fillColor=#CCCCFF;align=left;" vertex="1" parent="1">
          <mxGeometry x="140" y="452" width="250" height="20" as="geometry" />
        </mxCell>
        <mxCell id="N2usLRuaXVRc8HSE8ele-18" value="&lt;b&gt;Prompt 3: Sold &amp;gt; Bought&lt;/b&gt;" style="text;html=1;align=center;verticalAlign=middle;whiteSpace=wrap;rounded=0;" vertex="1" parent="1">
          <mxGeometry x="156.5" y="360" width="153.5" height="10" as="geometry" />
        </mxCell>
        <mxCell id="N2usLRuaXVRc8HSE8ele-19" value="&lt;b&gt;Reply 3&lt;/b&gt;&lt;b&gt;: Sold &amp;gt; Bought&lt;/b&gt;" style="text;html=1;align=center;verticalAlign=middle;whiteSpace=wrap;rounded=0;" vertex="1" parent="1">
          <mxGeometry x="156.5" y="442" width="143.5" height="10" as="geometry" />
        </mxCell>
        <mxCell id="N2usLRuaXVRc8HSE8ele-20" value="" style="rounded=1;whiteSpace=wrap;html=1;dashed=1;strokeWidth=2;fillColor=none;" vertex="1" parent="1">
          <mxGeometry x="140" y="453" width="250" height="18" as="geometry" />
        </mxCell>
        <mxCell id="N2usLRuaXVRc8HSE8ele-21" value="&lt;blockquote style=&quot;margin: 0 0 0 40px; border: none; padding: 0px;&quot;&gt;&lt;div style=&quot;text-align: justify; padding-left: 5px; padding-right: 5px;&quot;&gt;&lt;div&gt;&lt;strong style=&quot;background-color: initial;&quot; data-end=&quot;80&quot; data-start=&quot;74&quot;&gt;&lt;span style=&quot;white-space: pre;&quot;&gt;&#x9;&lt;/span&gt;A:&lt;/strong&gt;&lt;span style=&quot;background-color: initial;&quot;&gt;&amp;nbsp;No&lt;/span&gt;&lt;span style=&quot;color: rgba(0, 0, 0, 0); font-family: monospace; font-size: 0px; text-align: start; text-wrap: nowrap; background-color: initial;&quot;&gt;%3CmxGraphModel%3E%3Croot%3E%3CmxCell%20id%3D%220%22%2F%3E%3CmxCell%20id%3D%221%22%20parent%3D%220%22%2F%3E%3CmxCell%20id%3D%222%22%20value%3D%22%22%20style%3D%22rounded%3D1%3BwhiteSpace%3Dwrap%3Bhtml%3D1%3Bdashed%3D1%3BstrokeWidth%3D2%3BfillColor%3Dnone%3B%22%20vertex%3D%221%22%20parent%3D%221%22%3E%3CmxGeometry%20x%3D%22390%22%20y%3D%22211%22%20width%3D%22250%22%20height%3D%2218%22%20as%3D%22geometry%22%2F%3E%3C%2FmxCell%3E%3C%2Froot%3E%3C%2FmxGraphModel%3E&lt;/span&gt;&lt;span style=&quot;background-color: initial;&quot;&gt;, [Explanations]&lt;/span&gt;&lt;/div&gt;&lt;/div&gt;&lt;/blockquote&gt;" style="rounded=1;whiteSpace=wrap;html=1;strokeColor=none;fillColor=#CCCCFF;align=left;" vertex="1" parent="1">
          <mxGeometry x="400" y="452" width="250" height="20" as="geometry" />
        </mxCell>
        <mxCell id="N2usLRuaXVRc8HSE8ele-22" value="&lt;b&gt;Reply 3&lt;/b&gt;&lt;b&gt;: Sold &amp;gt; Bought&lt;/b&gt;" style="text;html=1;align=center;verticalAlign=middle;whiteSpace=wrap;rounded=0;" vertex="1" parent="1">
          <mxGeometry x="500" y="442" width="137" height="10" as="geometry" />
        </mxCell>
        <mxCell id="N2usLRuaXVRc8HSE8ele-23" value="" style="rounded=1;whiteSpace=wrap;html=1;dashed=1;strokeWidth=2;fillColor=none;" vertex="1" parent="1">
          <mxGeometry x="400" y="453" width="250" height="18" as="geometry" />
        </mxCell>
        <mxCell id="N2usLRuaXVRc8HSE8ele-24" value="" style="shape=image;verticalLabelPosition=bottom;labelBackgroundColor=default;verticalAlign=top;aspect=fixed;imageAspect=0;image=data:image/png,iVBORw0KGgoAAAANSUhEUgAAAPoAAAD6CAYAAACI7Fo9AAAACXBIWXMAAA7EAAAOxAGVKw4bAAAJA0lEQVR4nO3dMYhdWR0G8HmiCBsrA1oIgxBIEJuNTRSmjOkCIsQIVsaBhSzsFAGDTYo0koUsJJCFhdlYx4BNukkKi9lSo4VIRmyms4iVWVCLsRXvP/LPnDtvJu/7/crDfe+d+x4fBz7OeXdxsHawBqy2Lxz3BICjJ+gQQNAhgKBDAEGHAIIOAQQdAgg6BBB0CCDoEEDQIYCgQwBBhwCCDgEEHQIIOgQQdAgg6BBA0CGAoEMAQYcAgg4BBB0CCDoEEHQIIOgQQNAhgKBDAEGHAF887glwOIu1xYl5DO7B2sHiuOfA/2dFhwCCDgEEHQIIOgRQxh2jkULt7Nmzk7H19fXWWNf+/n5rbLF3+PtQ5C2HFR0CCDoEEHQIIOgQYHGwdmI2WK20qnjrFmqVkZJtGbpF3t7e3mRMQTc/KzoEEHQIIOgQQNAhgJ1xR2CkeDvpJVvXyH1UO+0UdGOs6BBA0CGAoEMAQYcAyrhBcxdv1Vi1o6yyjNdWY8vYzaegG2NFhwCCDgEEHQIIOgRQxh2BuYu3kQKsa+Qzuq8dmXN1nJU+KzoEEHQIIOgQQNAhgDLuDcy9C667a61bdo1cN2IZ86u+Z7vl+qzoEEDQIYCgQwBBhwDKuBNmd3d3MtbdFbaxsTEZm7ugm3t+lWUUiGms6BBA0CGAoEMAQYcAyrglqcqkbrF18OLJZGxx7nLrtdWOsqoUm7sAm7ugY4wVHQIIOgQQdAgg6BBAGXcEuv/7VhVW966en4zdv3Wrdd3m5uZk7NT333/tPP9bVYp1y8JqLpWtR88PPRfGWNEhgKBDAEGHAIIOARYHa5O/3eI1uv8Zd5IeNvDq6YPJWFXQnfT76M7Pf8bVrOgQQNAhgKBDAEGHAHbGDXr//KnJ2FbRYR0cHE/puVj0uqmy2DpBc+5+z9Ss6BBA0CGAoEMAQYcAyrg3UB3HvHTp0vTC4jjmv/Y+m4z94pPfTMauX78+Gfv4448nY3fv3p2M3bhxYzqXAdX7dT+3ex+/fO+HrblU3/O96sJHrbeLY0WHAIIOAQQdAgg6BFDGDaoefND1g3e/MRk7c+bMZOx7P/naZGykeOseXa1Un1vNr7qP6n67Rr5nrOgQQdAhgKBDAEGHAMq4I1DtoPvyuelDCf75YvqAhK6qAPv6n740Gfvo0J9Ql2d/+/a/D/1+Fy5cmIxV30v3gRD0WdEhgKBDAEGHAIIOATzAYdD9q99pfYHVMctv/ezO7PP5Xwcvnhz6tYtzl2ecSe3Pn96cjO3s7LRe+8Gj33tYQ5MVHQIIOgQQdAgg6BBAGTeoesJq97/lqqOX71THMaux/f3mDJegOb/Pi7H9Yqwq47aK/+Hz5NQ+KzoEEHQIIOgQQNAhgGOqR+CPp4pjlkXBVBZ0xfu9MzCX+7duHfq1H9y+3bru893ecdtu8VZ+f2vTMo4+KzoEEHQIIOgQQNAhgJ1xb6DaBXfx4sXJddWOt6qIunz6ZetzNzc3W9eVu+pmVu1uq2xvb7eue/Ly9GSs+/09e/ZsMma3XM2KDgEEHQIIOgQQdAhgZ9ygkad8Pnj+qndhs9jqHoXt6u5kq1QlW/V+6+vd6zxNdYQVHQIIOgQQdAgg6BBAGfca3V1wlapM6hZM1XXt0m6tV5SN6M6lKtm699st3qrfY/Fs+rvZLWdFhwiCDgEEHQIIOgRQxq2NHT+d297e3qFfu3XjrzPO5DUenWldVt3HyJHeSvVaBV3Nig4BBB0CCDoEEHQIEFfGzV28jeyCq/7zrJpL9X4bGxuTsYfv9YqytU+K0q752mvXrk3GdosHOIzc7wjHWWtWdAgg6BBA0CGAoEOAlS7jTlLx1tV9bVWAVUXZw4cPW59R7UUbKd7m/g7slhtjRYcAgg4BBB0CCDoEWOkyrnJcxdvIrrDu51ZF2Yhu8dadX3W/dssthxUdAgg6BBB0CCDoEGBlyrjjeuBC9/26Rgq16ujqyH/QVe/XvbdukTdiZLdcGis6BBB0CCDoEEDQIcDKlHGV7i6uuY+ajjy8YBk7xebWvY+q3BvZLTdSeqYdXbWiQwBBhwCCDgEEHQKsdBlXGdlN1S3yup87UiYd126vkf9zm/sYLX1WdAgg6BBA0CGAoEOAuDKu2rV29uzZI//caldYZeRYadd3f/vRZOzwtWDfMr6DuXc5rgorOgQQdAgg6BBA0CHASpdxIzvPRty7en4ytlU81bRr7l11t2//fDL26zs3J2Nz72Srnuxaqb6/Jy9nnUocKzoEEHQIIOgQQNAhwEqXcSfJq6cPJmM/ffaPyVhVilU7u7q7vapdZru7f2i9truTrSoGq8/90c07k7FfXfzKZGx7e7v1uZXqc7v3scqs6BBA0CGAoEMAQYcAK13Gjewem3tXXf1+X229tnqgwYiNjXdb13V3so1Yxu7FuXcWvo2s6BBA0CGAoEMAQYcAK13GVbukqqdjLvamT9GsdHejbT16Phm7V134zR9Phnb+Mj2PWe0Uq46aVjveunOuPrcqrKoi79atDydjm5ubk7HqPnZ2diZjT16efu08D6O7c29VnpxasaJDAEGHAIIOAQQdAqxMGVeWbGu9km1u1QMhPiuKt6qwqoqjS5cuzTOxI1LNr7qPuqAr3vDl09b7zV22rjIrOgQQdAgg6BBA0CHAypRxI+beLTdyBLLaKVaVWF3r672jsNV13fuovoNqF9zIfTDGig4BBB0CCDoEEHQIsNJl3Mixw7l3WFUPZkhTFXR//928u+C6VvlIasWKDgEEHQIIOgQQdAiwOFiLP8E3ZOQobLcQunrzw7fuR6rKx+r4blWyVdLKs7lZ0SGAoEMAQYcAgg4BlHFLUpV2x/U/dyOl2NyUbMthRYcAgg4BBB0CCDoEUMYdo6p4u3LlyuS67hNRq+Odjx8/PsTMljcXZdxyWNEhgKBDAEGHAIIOAVb6P+PeRt2ya8QyduQt4z7os6JDAEGHAIIOAQQdAtgZd4yWcSS1clzHY7tzYX5WdAgg6BBA0CGAoEMAZRwEsKJDAEGHAIIOAQQdAgg6BBB0CCDoEEDQIYCgQwBBhwCCDgEEHQIIOgQQdAjwH8cV9ZEMMgoVAAAAAElFTkSuQmCC;" vertex="1" parent="1">
          <mxGeometry x="130" y="432" width="40" height="40" as="geometry" />
        </mxCell>
        <mxCell id="N2usLRuaXVRc8HSE8ele-25" value="" style="shape=image;verticalLabelPosition=bottom;labelBackgroundColor=default;verticalAlign=top;aspect=fixed;imageAspect=0;image=data:image/png,iVBORw0KGgoAAAANSUhEUgAAAPoAAAD6CAYAAACI7Fo9AAAACXBIWXMAAA7EAAAOxAGVKw4bAAAJA0lEQVR4nO3dMYhdWR0G8HmiCBsrA1oIgxBIEJuNTRSmjOkCIsQIVsaBhSzsFAGDTYo0koUsJJCFhdlYx4BNukkKi9lSo4VIRmyms4iVWVCLsRXvP/LPnDtvJu/7/crDfe+d+x4fBz7OeXdxsHawBqy2Lxz3BICjJ+gQQNAhgKBDAEGHAIIOAQQdAgg6BBB0CCDoEEDQIYCgQwBBhwCCDgEEHQIIOgQQdAgg6BBA0CGAoEMAQYcAgg4BBB0CCDoEEHQIIOgQQNAhgKBDAEGHAF887glwOIu1xYl5DO7B2sHiuOfA/2dFhwCCDgEEHQIIOgRQxh2jkULt7Nmzk7H19fXWWNf+/n5rbLF3+PtQ5C2HFR0CCDoEEHQIIOgQYHGwdmI2WK20qnjrFmqVkZJtGbpF3t7e3mRMQTc/KzoEEHQIIOgQQNAhgJ1xR2CkeDvpJVvXyH1UO+0UdGOs6BBA0CGAoEMAQYcAyrhBcxdv1Vi1o6yyjNdWY8vYzaegG2NFhwCCDgEEHQIIOgRQxh2BuYu3kQKsa+Qzuq8dmXN1nJU+KzoEEHQIIOgQQNAhgDLuDcy9C667a61bdo1cN2IZ86u+Z7vl+qzoEEDQIYCgQwBBhwDKuBNmd3d3MtbdFbaxsTEZm7ugm3t+lWUUiGms6BBA0CGAoEMAQYcAyrglqcqkbrF18OLJZGxx7nLrtdWOsqoUm7sAm7ugY4wVHQIIOgQQdAgg6BBAGXcEuv/7VhVW966en4zdv3Wrdd3m5uZk7NT333/tPP9bVYp1y8JqLpWtR88PPRfGWNEhgKBDAEGHAIIOARYHa5O/3eI1uv8Zd5IeNvDq6YPJWFXQnfT76M7Pf8bVrOgQQNAhgKBDAEGHAHbGDXr//KnJ2FbRYR0cHE/puVj0uqmy2DpBc+5+z9Ss6BBA0CGAoEMAQYcAyrg3UB3HvHTp0vTC4jjmv/Y+m4z94pPfTMauX78+Gfv4448nY3fv3p2M3bhxYzqXAdX7dT+3ex+/fO+HrblU3/O96sJHrbeLY0WHAIIOAQQdAgg6BFDGDaoefND1g3e/MRk7c+bMZOx7P/naZGykeOseXa1Un1vNr7qP6n67Rr5nrOgQQdAhgKBDAEGHAMq4I1DtoPvyuelDCf75YvqAhK6qAPv6n740Gfvo0J9Ql2d/+/a/D/1+Fy5cmIxV30v3gRD0WdEhgKBDAEGHAIIOATzAYdD9q99pfYHVMctv/ezO7PP5Xwcvnhz6tYtzl2ecSe3Pn96cjO3s7LRe+8Gj33tYQ5MVHQIIOgQQdAgg6BBAGTeoesJq97/lqqOX71THMaux/f3mDJegOb/Pi7H9Yqwq47aK/+Hz5NQ+KzoEEHQIIOgQQNAhgGOqR+CPp4pjlkXBVBZ0xfu9MzCX+7duHfq1H9y+3bru893ecdtu8VZ+f2vTMo4+KzoEEHQIIOgQQNAhgJ1xb6DaBXfx4sXJddWOt6qIunz6ZetzNzc3W9eVu+pmVu1uq2xvb7eue/Ly9GSs+/09e/ZsMma3XM2KDgEEHQIIOgQQdAhgZ9ygkad8Pnj+qndhs9jqHoXt6u5kq1QlW/V+6+vd6zxNdYQVHQIIOgQQdAgg6BBAGfca3V1wlapM6hZM1XXt0m6tV5SN6M6lKtm699st3qrfY/Fs+rvZLWdFhwiCDgEEHQIIOgRQxq2NHT+d297e3qFfu3XjrzPO5DUenWldVt3HyJHeSvVaBV3Nig4BBB0CCDoEEHQIEFfGzV28jeyCq/7zrJpL9X4bGxuTsYfv9YqytU+K0q752mvXrk3GdosHOIzc7wjHWWtWdAgg6BBA0CGAoEOAlS7jTlLx1tV9bVWAVUXZw4cPW59R7UUbKd7m/g7slhtjRYcAgg4BBB0CCDoEWOkyrnJcxdvIrrDu51ZF2Yhu8dadX3W/dssthxUdAgg6BBB0CCDoEGBlyrjjeuBC9/26Rgq16ujqyH/QVe/XvbdukTdiZLdcGis6BBB0CCDoEEDQIcDKlHGV7i6uuY+ajjy8YBk7xebWvY+q3BvZLTdSeqYdXbWiQwBBhwCCDgEEHQKsdBlXGdlN1S3yup87UiYd126vkf9zm/sYLX1WdAgg6BBA0CGAoEOAuDKu2rV29uzZI//caldYZeRYadd3f/vRZOzwtWDfMr6DuXc5rgorOgQQdAgg6BBA0CHASpdxIzvPRty7en4ytlU81bRr7l11t2//fDL26zs3J2Nz72Srnuxaqb6/Jy9nnUocKzoEEHQIIOgQQNAhwEqXcSfJq6cPJmM/ffaPyVhVilU7u7q7vapdZru7f2i9truTrSoGq8/90c07k7FfXfzKZGx7e7v1uZXqc7v3scqs6BBA0CGAoEMAQYcAK13Gjewem3tXXf1+X229tnqgwYiNjXdb13V3so1Yxu7FuXcWvo2s6BBA0CGAoEMAQYcAK13GVbukqqdjLvamT9GsdHejbT16Phm7V134zR9Phnb+Mj2PWe0Uq46aVjveunOuPrcqrKoi79atDydjm5ubk7HqPnZ2diZjT16efu08D6O7c29VnpxasaJDAEGHAIIOAQQdAqxMGVeWbGu9km1u1QMhPiuKt6qwqoqjS5cuzTOxI1LNr7qPuqAr3vDl09b7zV22rjIrOgQQdAgg6BBA0CHAypRxI+beLTdyBLLaKVaVWF3r672jsNV13fuovoNqF9zIfTDGig4BBB0CCDoEEHQIsNJl3Mixw7l3WFUPZkhTFXR//928u+C6VvlIasWKDgEEHQIIOgQQdAiwOFiLP8E3ZOQobLcQunrzw7fuR6rKx+r4blWyVdLKs7lZ0SGAoEMAQYcAgg4BlHFLUpV2x/U/dyOl2NyUbMthRYcAgg4BBB0CCDoEUMYdo6p4u3LlyuS67hNRq+Odjx8/PsTMljcXZdxyWNEhgKBDAEGHAIIOAVb6P+PeRt2ya8QyduQt4z7os6JDAEGHAIIOAQQdAtgZd4yWcSS1clzHY7tzYX5WdAgg6BBA0CGAoEMAZRwEsKJDAEGHAIIOAQQdAgg6BBB0CCDoEEDQIYCgQwBBhwCCDgEEHQIIOgQQdAjwH8cV9ZEMMgoVAAAAAElFTkSuQmCC;" vertex="1" parent="1">
          <mxGeometry x="620" y="432" width="40" height="40" as="geometry" />
        </mxCell>
        <mxCell id="N2usLRuaXVRc8HSE8ele-26" value="" style="endArrow=classicThin;html=1;rounded=0;endFill=1;entryX=0.687;entryY=-0.012;entryDx=0;entryDy=0;entryPerimeter=0;" edge="1" parent="1">
          <mxGeometry width="50" height="50" relative="1" as="geometry">
            <mxPoint x="431" y="470" as="sourcePoint" />
            <mxPoint x="431.3699999999999" y="502.28" as="targetPoint" />
          </mxGeometry>
        </mxCell>
        <mxCell id="N2usLRuaXVRc8HSE8ele-30" value="&lt;div style=&quot;text-align: justify; padding-left: 5px; padding-right: 5px;&quot;&gt;&lt;div&gt;&lt;strong style=&quot;background-color: initial;&quot; data-end=&quot;80&quot; data-start=&quot;74&quot;&gt;&lt;br&gt;&lt;/strong&gt;&lt;/div&gt;&lt;div&gt;&lt;strong style=&quot;background-color: initial;&quot; data-end=&quot;80&quot; data-start=&quot;74&quot;&gt;Q:&lt;/strong&gt;&lt;span style=&quot;background-color: initial;&quot;&gt;&amp;nbsp;Given the wallet&#39;s transaction records, did the wallet complete too many swaps within ten seconds?&lt;br&gt;&lt;/span&gt;&lt;/div&gt;&lt;div&gt;- Transaction records&lt;span style=&quot;background-color: initial;&quot;&gt;:&amp;nbsp;&lt;/span&gt;&lt;span style=&quot;background-color: initial; color: rgb(0, 0, 255);&quot;&gt;{&lt;/span&gt;&lt;i style=&quot;background-color: initial; color: rgb(0, 0, 255);&quot;&gt;records&lt;/i&gt;&lt;span style=&quot;background-color: initial; color: rgb(0, 0, 255);&quot;&gt;}&lt;/span&gt;&lt;/div&gt;&lt;div&gt;&lt;span style=&quot;background-color: initial;&quot;&gt;&lt;br&gt;&lt;/span&gt;&lt;/div&gt;&lt;/div&gt;" style="rounded=1;whiteSpace=wrap;html=1;strokeColor=none;fillColor=#CCCCFF;align=left;" vertex="1" parent="1">
          <mxGeometry x="140" y="503" width="510" height="60" as="geometry" />
        </mxCell>
        <mxCell id="N2usLRuaXVRc8HSE8ele-31" value="" style="shape=image;verticalLabelPosition=bottom;labelBackgroundColor=default;verticalAlign=top;aspect=fixed;imageAspect=0;image=https://openclipart.org/image/800px/247320;" vertex="1" parent="1">
          <mxGeometry x="137" y="488" width="26" height="26" as="geometry" />
        </mxCell>
        <mxCell id="N2usLRuaXVRc8HSE8ele-32" value="&lt;blockquote style=&quot;margin: 0 0 0 40px; border: none; padding: 0px;&quot;&gt;&lt;div style=&quot;text-align: justify; padding-left: 5px; padding-right: 5px;&quot;&gt;&lt;div&gt;&lt;strong style=&quot;background-color: initial;&quot; data-end=&quot;80&quot; data-start=&quot;74&quot;&gt;&lt;span style=&quot;white-space: pre;&quot;&gt;&#x9;&lt;/span&gt;A:&lt;/strong&gt;&lt;span style=&quot;background-color: initial;&quot;&gt;&amp;nbsp;Yes, [Explanations]&lt;/span&gt;&lt;/div&gt;&lt;/div&gt;&lt;/blockquote&gt;" style="rounded=1;whiteSpace=wrap;html=1;strokeColor=none;fillColor=#CCCCFF;align=left;" vertex="1" parent="1">
          <mxGeometry x="140" y="585" width="250" height="20" as="geometry" />
        </mxCell>
        <mxCell id="N2usLRuaXVRc8HSE8ele-33" value="&lt;b&gt;Prompt 4: Trading Frequency&lt;/b&gt;" style="text;html=1;align=center;verticalAlign=middle;whiteSpace=wrap;rounded=0;" vertex="1" parent="1">
          <mxGeometry x="156.5" y="493" width="177" height="10" as="geometry" />
        </mxCell>
        <mxCell id="N2usLRuaXVRc8HSE8ele-34" value="&lt;b&gt;Reply&lt;/b&gt;&lt;b&gt;&amp;nbsp;4: Trading Frequency&lt;/b&gt;" style="text;html=1;align=center;verticalAlign=middle;whiteSpace=wrap;rounded=0;" vertex="1" parent="1">
          <mxGeometry x="156.5" y="575" width="163.5" height="10" as="geometry" />
        </mxCell>
        <mxCell id="N2usLRuaXVRc8HSE8ele-35" value="" style="rounded=1;whiteSpace=wrap;html=1;dashed=1;strokeWidth=2;fillColor=none;" vertex="1" parent="1">
          <mxGeometry x="140" y="586" width="250" height="18" as="geometry" />
        </mxCell>
        <mxCell id="N2usLRuaXVRc8HSE8ele-36" value="&lt;blockquote style=&quot;margin: 0 0 0 40px; border: none; padding: 0px;&quot;&gt;&lt;div style=&quot;text-align: justify; padding-left: 5px; padding-right: 5px;&quot;&gt;&lt;div&gt;&lt;strong style=&quot;background-color: initial;&quot; data-end=&quot;80&quot; data-start=&quot;74&quot;&gt;&lt;span style=&quot;white-space: pre;&quot;&gt;&#x9;&lt;/span&gt;A:&lt;/strong&gt;&lt;span style=&quot;background-color: initial;&quot;&gt;&amp;nbsp;No&lt;/span&gt;&lt;span style=&quot;color: rgba(0, 0, 0, 0); font-family: monospace; font-size: 0px; text-align: start; text-wrap: nowrap; background-color: initial;&quot;&gt;%3CmxGraphModel%3E%3Croot%3E%3CmxCell%20id%3D%220%22%2F%3E%3CmxCell%20id%3D%221%22%20parent%3D%220%22%2F%3E%3CmxCell%20id%3D%222%22%20value%3D%22%22%20style%3D%22rounded%3D1%3BwhiteSpace%3Dwrap%3Bhtml%3D1%3Bdashed%3D1%3BstrokeWidth%3D2%3BfillColor%3Dnone%3B%22%20vertex%3D%221%22%20parent%3D%221%22%3E%3CmxGeometry%20x%3D%22390%22%20y%3D%22211%22%20width%3D%22250%22%20height%3D%2218%22%20as%3D%22geometry%22%2F%3E%3C%2FmxCell%3E%3C%2Froot%3E%3C%2FmxGraphModel%3E&lt;/span&gt;&lt;span style=&quot;background-color: initial;&quot;&gt;, [Explanations]&lt;/span&gt;&lt;/div&gt;&lt;/div&gt;&lt;/blockquote&gt;" style="rounded=1;whiteSpace=wrap;html=1;strokeColor=none;fillColor=#CCCCFF;align=left;" vertex="1" parent="1">
          <mxGeometry x="400" y="585" width="250" height="20" as="geometry" />
        </mxCell>
        <mxCell id="N2usLRuaXVRc8HSE8ele-37" value="&lt;b&gt;Reply&lt;/b&gt;&lt;b&gt;&amp;nbsp;4: Trading Frequency&lt;/b&gt;" style="text;html=1;align=center;verticalAlign=middle;whiteSpace=wrap;rounded=0;" vertex="1" parent="1">
          <mxGeometry x="470" y="575" width="167" height="10" as="geometry" />
        </mxCell>
        <mxCell id="N2usLRuaXVRc8HSE8ele-38" value="" style="rounded=1;whiteSpace=wrap;html=1;dashed=1;strokeWidth=2;fillColor=none;" vertex="1" parent="1">
          <mxGeometry x="400" y="586" width="250" height="18" as="geometry" />
        </mxCell>
        <mxCell id="N2usLRuaXVRc8HSE8ele-39" value="" style="shape=image;verticalLabelPosition=bottom;labelBackgroundColor=default;verticalAlign=top;aspect=fixed;imageAspect=0;image=data:image/png,iVBORw0KGgoAAAANSUhEUgAAAPoAAAD6CAYAAACI7Fo9AAAACXBIWXMAAA7EAAAOxAGVKw4bAAAJA0lEQVR4nO3dMYhdWR0G8HmiCBsrA1oIgxBIEJuNTRSmjOkCIsQIVsaBhSzsFAGDTYo0koUsJJCFhdlYx4BNukkKi9lSo4VIRmyms4iVWVCLsRXvP/LPnDtvJu/7/crDfe+d+x4fBz7OeXdxsHawBqy2Lxz3BICjJ+gQQNAhgKBDAEGHAIIOAQQdAgg6BBB0CCDoEEDQIYCgQwBBhwCCDgEEHQIIOgQQdAgg6BBA0CGAoEMAQYcAgg4BBB0CCDoEEHQIIOgQQNAhgKBDAEGHAF887glwOIu1xYl5DO7B2sHiuOfA/2dFhwCCDgEEHQIIOgRQxh2jkULt7Nmzk7H19fXWWNf+/n5rbLF3+PtQ5C2HFR0CCDoEEHQIIOgQYHGwdmI2WK20qnjrFmqVkZJtGbpF3t7e3mRMQTc/KzoEEHQIIOgQQNAhgJ1xR2CkeDvpJVvXyH1UO+0UdGOs6BBA0CGAoEMAQYcAyrhBcxdv1Vi1o6yyjNdWY8vYzaegG2NFhwCCDgEEHQIIOgRQxh2BuYu3kQKsa+Qzuq8dmXN1nJU+KzoEEHQIIOgQQNAhgDLuDcy9C667a61bdo1cN2IZ86u+Z7vl+qzoEEDQIYCgQwBBhwDKuBNmd3d3MtbdFbaxsTEZm7ugm3t+lWUUiGms6BBA0CGAoEMAQYcAyrglqcqkbrF18OLJZGxx7nLrtdWOsqoUm7sAm7ugY4wVHQIIOgQQdAgg6BBAGXcEuv/7VhVW966en4zdv3Wrdd3m5uZk7NT333/tPP9bVYp1y8JqLpWtR88PPRfGWNEhgKBDAEGHAIIOARYHa5O/3eI1uv8Zd5IeNvDq6YPJWFXQnfT76M7Pf8bVrOgQQNAhgKBDAEGHAHbGDXr//KnJ2FbRYR0cHE/puVj0uqmy2DpBc+5+z9Ss6BBA0CGAoEMAQYcAyrg3UB3HvHTp0vTC4jjmv/Y+m4z94pPfTMauX78+Gfv4448nY3fv3p2M3bhxYzqXAdX7dT+3ex+/fO+HrblU3/O96sJHrbeLY0WHAIIOAQQdAgg6BFDGDaoefND1g3e/MRk7c+bMZOx7P/naZGykeOseXa1Un1vNr7qP6n67Rr5nrOgQQdAhgKBDAEGHAMq4I1DtoPvyuelDCf75YvqAhK6qAPv6n740Gfvo0J9Ql2d/+/a/D/1+Fy5cmIxV30v3gRD0WdEhgKBDAEGHAIIOATzAYdD9q99pfYHVMctv/ezO7PP5Xwcvnhz6tYtzl2ecSe3Pn96cjO3s7LRe+8Gj33tYQ5MVHQIIOgQQdAgg6BBAGTeoesJq97/lqqOX71THMaux/f3mDJegOb/Pi7H9Yqwq47aK/+Hz5NQ+KzoEEHQIIOgQQNAhgGOqR+CPp4pjlkXBVBZ0xfu9MzCX+7duHfq1H9y+3bru893ecdtu8VZ+f2vTMo4+KzoEEHQIIOgQQNAhgJ1xb6DaBXfx4sXJddWOt6qIunz6ZetzNzc3W9eVu+pmVu1uq2xvb7eue/Ly9GSs+/09e/ZsMma3XM2KDgEEHQIIOgQQdAhgZ9ygkad8Pnj+qndhs9jqHoXt6u5kq1QlW/V+6+vd6zxNdYQVHQIIOgQQdAgg6BBAGfca3V1wlapM6hZM1XXt0m6tV5SN6M6lKtm699st3qrfY/Fs+rvZLWdFhwiCDgEEHQIIOgRQxq2NHT+d297e3qFfu3XjrzPO5DUenWldVt3HyJHeSvVaBV3Nig4BBB0CCDoEEHQIEFfGzV28jeyCq/7zrJpL9X4bGxuTsYfv9YqytU+K0q752mvXrk3GdosHOIzc7wjHWWtWdAgg6BBA0CGAoEOAlS7jTlLx1tV9bVWAVUXZw4cPW59R7UUbKd7m/g7slhtjRYcAgg4BBB0CCDoEWOkyrnJcxdvIrrDu51ZF2Yhu8dadX3W/dssthxUdAgg6BBB0CCDoEGBlyrjjeuBC9/26Rgq16ujqyH/QVe/XvbdukTdiZLdcGis6BBB0CCDoEEDQIcDKlHGV7i6uuY+ajjy8YBk7xebWvY+q3BvZLTdSeqYdXbWiQwBBhwCCDgEEHQKsdBlXGdlN1S3yup87UiYd126vkf9zm/sYLX1WdAgg6BBA0CGAoEOAuDKu2rV29uzZI//caldYZeRYadd3f/vRZOzwtWDfMr6DuXc5rgorOgQQdAgg6BBA0CHASpdxIzvPRty7en4ytlU81bRr7l11t2//fDL26zs3J2Nz72Srnuxaqb6/Jy9nnUocKzoEEHQIIOgQQNAhwEqXcSfJq6cPJmM/ffaPyVhVilU7u7q7vapdZru7f2i9truTrSoGq8/90c07k7FfXfzKZGx7e7v1uZXqc7v3scqs6BBA0CGAoEMAQYcAK13Gjewem3tXXf1+X229tnqgwYiNjXdb13V3so1Yxu7FuXcWvo2s6BBA0CGAoEMAQYcAK13GVbukqqdjLvamT9GsdHejbT16Phm7V134zR9Phnb+Mj2PWe0Uq46aVjveunOuPrcqrKoi79atDydjm5ubk7HqPnZ2diZjT16efu08D6O7c29VnpxasaJDAEGHAIIOAQQdAqxMGVeWbGu9km1u1QMhPiuKt6qwqoqjS5cuzTOxI1LNr7qPuqAr3vDl09b7zV22rjIrOgQQdAgg6BBA0CHAypRxI+beLTdyBLLaKVaVWF3r672jsNV13fuovoNqF9zIfTDGig4BBB0CCDoEEHQIsNJl3Mixw7l3WFUPZkhTFXR//928u+C6VvlIasWKDgEEHQIIOgQQdAiwOFiLP8E3ZOQobLcQunrzw7fuR6rKx+r4blWyVdLKs7lZ0SGAoEMAQYcAgg4BlHFLUpV2x/U/dyOl2NyUbMthRYcAgg4BBB0CCDoEUMYdo6p4u3LlyuS67hNRq+Odjx8/PsTMljcXZdxyWNEhgKBDAEGHAIIOAVb6P+PeRt2ya8QyduQt4z7os6JDAEGHAIIOAQQdAtgZd4yWcSS1clzHY7tzYX5WdAgg6BBA0CGAoEMAZRwEsKJDAEGHAIIOAQQdAgg6BBB0CCDoEEDQIYCgQwBBhwCCDgEEHQIIOgQQdAjwH8cV9ZEMMgoVAAAAAElFTkSuQmCC;" vertex="1" parent="1">
          <mxGeometry x="130" y="565" width="40" height="40" as="geometry" />
        </mxCell>
        <mxCell id="N2usLRuaXVRc8HSE8ele-40" value="" style="shape=image;verticalLabelPosition=bottom;labelBackgroundColor=default;verticalAlign=top;aspect=fixed;imageAspect=0;image=data:image/png,iVBORw0KGgoAAAANSUhEUgAAAPoAAAD6CAYAAACI7Fo9AAAACXBIWXMAAA7EAAAOxAGVKw4bAAAJA0lEQVR4nO3dMYhdWR0G8HmiCBsrA1oIgxBIEJuNTRSmjOkCIsQIVsaBhSzsFAGDTYo0koUsJJCFhdlYx4BNukkKi9lSo4VIRmyms4iVWVCLsRXvP/LPnDtvJu/7/crDfe+d+x4fBz7OeXdxsHawBqy2Lxz3BICjJ+gQQNAhgKBDAEGHAIIOAQQdAgg6BBB0CCDoEEDQIYCgQwBBhwCCDgEEHQIIOgQQdAgg6BBA0CGAoEMAQYcAgg4BBB0CCDoEEHQIIOgQQNAhgKBDAEGHAF887glwOIu1xYl5DO7B2sHiuOfA/2dFhwCCDgEEHQIIOgRQxh2jkULt7Nmzk7H19fXWWNf+/n5rbLF3+PtQ5C2HFR0CCDoEEHQIIOgQYHGwdmI2WK20qnjrFmqVkZJtGbpF3t7e3mRMQTc/KzoEEHQIIOgQQNAhgJ1xR2CkeDvpJVvXyH1UO+0UdGOs6BBA0CGAoEMAQYcAyrhBcxdv1Vi1o6yyjNdWY8vYzaegG2NFhwCCDgEEHQIIOgRQxh2BuYu3kQKsa+Qzuq8dmXN1nJU+KzoEEHQIIOgQQNAhgDLuDcy9C667a61bdo1cN2IZ86u+Z7vl+qzoEEDQIYCgQwBBhwDKuBNmd3d3MtbdFbaxsTEZm7ugm3t+lWUUiGms6BBA0CGAoEMAQYcAyrglqcqkbrF18OLJZGxx7nLrtdWOsqoUm7sAm7ugY4wVHQIIOgQQdAgg6BBAGXcEuv/7VhVW966en4zdv3Wrdd3m5uZk7NT333/tPP9bVYp1y8JqLpWtR88PPRfGWNEhgKBDAEGHAIIOARYHa5O/3eI1uv8Zd5IeNvDq6YPJWFXQnfT76M7Pf8bVrOgQQNAhgKBDAEGHAHbGDXr//KnJ2FbRYR0cHE/puVj0uqmy2DpBc+5+z9Ss6BBA0CGAoEMAQYcAyrg3UB3HvHTp0vTC4jjmv/Y+m4z94pPfTMauX78+Gfv4448nY3fv3p2M3bhxYzqXAdX7dT+3ex+/fO+HrblU3/O96sJHrbeLY0WHAIIOAQQdAgg6BFDGDaoefND1g3e/MRk7c+bMZOx7P/naZGykeOseXa1Un1vNr7qP6n67Rr5nrOgQQdAhgKBDAEGHAMq4I1DtoPvyuelDCf75YvqAhK6qAPv6n740Gfvo0J9Ql2d/+/a/D/1+Fy5cmIxV30v3gRD0WdEhgKBDAEGHAIIOATzAYdD9q99pfYHVMctv/ezO7PP5Xwcvnhz6tYtzl2ecSe3Pn96cjO3s7LRe+8Gj33tYQ5MVHQIIOgQQdAgg6BBAGTeoesJq97/lqqOX71THMaux/f3mDJegOb/Pi7H9Yqwq47aK/+Hz5NQ+KzoEEHQIIOgQQNAhgGOqR+CPp4pjlkXBVBZ0xfu9MzCX+7duHfq1H9y+3bru893ecdtu8VZ+f2vTMo4+KzoEEHQIIOgQQNAhgJ1xb6DaBXfx4sXJddWOt6qIunz6ZetzNzc3W9eVu+pmVu1uq2xvb7eue/Ly9GSs+/09e/ZsMma3XM2KDgEEHQIIOgQQdAhgZ9ygkad8Pnj+qndhs9jqHoXt6u5kq1QlW/V+6+vd6zxNdYQVHQIIOgQQdAgg6BBAGfca3V1wlapM6hZM1XXt0m6tV5SN6M6lKtm699st3qrfY/Fs+rvZLWdFhwiCDgEEHQIIOgRQxq2NHT+d297e3qFfu3XjrzPO5DUenWldVt3HyJHeSvVaBV3Nig4BBB0CCDoEEHQIEFfGzV28jeyCq/7zrJpL9X4bGxuTsYfv9YqytU+K0q752mvXrk3GdosHOIzc7wjHWWtWdAgg6BBA0CGAoEOAlS7jTlLx1tV9bVWAVUXZw4cPW59R7UUbKd7m/g7slhtjRYcAgg4BBB0CCDoEWOkyrnJcxdvIrrDu51ZF2Yhu8dadX3W/dssthxUdAgg6BBB0CCDoEGBlyrjjeuBC9/26Rgq16ujqyH/QVe/XvbdukTdiZLdcGis6BBB0CCDoEEDQIcDKlHGV7i6uuY+ajjy8YBk7xebWvY+q3BvZLTdSeqYdXbWiQwBBhwCCDgEEHQKsdBlXGdlN1S3yup87UiYd126vkf9zm/sYLX1WdAgg6BBA0CGAoEOAuDKu2rV29uzZI//caldYZeRYadd3f/vRZOzwtWDfMr6DuXc5rgorOgQQdAgg6BBA0CHASpdxIzvPRty7en4ytlU81bRr7l11t2//fDL26zs3J2Nz72Srnuxaqb6/Jy9nnUocKzoEEHQIIOgQQNAhwEqXcSfJq6cPJmM/ffaPyVhVilU7u7q7vapdZru7f2i9truTrSoGq8/90c07k7FfXfzKZGx7e7v1uZXqc7v3scqs6BBA0CGAoEMAQYcAK13Gjewem3tXXf1+X229tnqgwYiNjXdb13V3so1Yxu7FuXcWvo2s6BBA0CGAoEMAQYcAK13GVbukqqdjLvamT9GsdHejbT16Phm7V134zR9Phnb+Mj2PWe0Uq46aVjveunOuPrcqrKoi79atDydjm5ubk7HqPnZ2diZjT16efu08D6O7c29VnpxasaJDAEGHAIIOAQQdAqxMGVeWbGu9km1u1QMhPiuKt6qwqoqjS5cuzTOxI1LNr7qPuqAr3vDl09b7zV22rjIrOgQQdAgg6BBA0CHAypRxI+beLTdyBLLaKVaVWF3r672jsNV13fuovoNqF9zIfTDGig4BBB0CCDoEEHQIsNJl3Mixw7l3WFUPZkhTFXR//928u+C6VvlIasWKDgEEHQIIOgQQdAiwOFiLP8E3ZOQobLcQunrzw7fuR6rKx+r4blWyVdLKs7lZ0SGAoEMAQYcAgg4BlHFLUpV2x/U/dyOl2NyUbMthRYcAgg4BBB0CCDoEUMYdo6p4u3LlyuS67hNRq+Odjx8/PsTMljcXZdxyWNEhgKBDAEGHAIIOAVb6P+PeRt2ya8QyduQt4z7os6JDAEGHAIIOAQQdAtgZd4yWcSS1clzHY7tzYX5WdAgg6BBA0CGAoEMAZRwEsKJDAEGHAIIOAQQdAgg6BBB0CCDoEEDQIYCgQwBBhwCCDgEEHQIIOgQQdAjwH8cV9ZEMMgoVAAAAAElFTkSuQmCC;" vertex="1" parent="1">
          <mxGeometry x="620" y="565" width="40" height="40" as="geometry" />
        </mxCell>
        <mxCell id="N2usLRuaXVRc8HSE8ele-44" value="" style="rounded=1;whiteSpace=wrap;html=1;strokeColor=none;fillColor=#CCCCFF;arcSize=4;fontColor=#ffffff;opacity=50;" vertex="1" parent="1">
          <mxGeometry x="130" y="616" width="530" height="234" as="geometry" />
        </mxCell>
        <mxCell id="N2usLRuaXVRc8HSE8ele-46" value="&lt;div style=&quot;text-align: justify; padding-left: 5px; padding-right: 5px;&quot;&gt;&lt;div&gt;&lt;strong style=&quot;background-color: initial;&quot; data-end=&quot;80&quot; data-start=&quot;74&quot;&gt;&lt;br&gt;&lt;/strong&gt;&lt;/div&gt;&lt;div&gt;&lt;strong style=&quot;background-color: initial;&quot; data-end=&quot;80&quot; data-start=&quot;74&quot;&gt;Q:&lt;/strong&gt;&lt;span style=&quot;background-color: initial;&quot;&gt;&amp;nbsp;Given that the wallet has PnL&amp;nbsp;&lt;/span&gt;&lt;span style=&quot;background-color: initial; color: rgb(0, 0, 255);&quot;&gt;{7D&amp;nbsp;&lt;/span&gt;&lt;i style=&quot;background-color: initial; color: rgb(0, 0, 255);&quot;&gt;PnL&lt;/i&gt;&lt;span style=&quot;background-color: initial; color: rgb(0, 0, 255);&quot;&gt;} &lt;/span&gt;&lt;span style=&quot;background-color: initial;&quot;&gt;in 7 days and&amp;nbsp;&lt;/span&gt;&lt;span style=&quot;background-color: initial; color: rgb(0, 0, 255);&quot;&gt;{30D&amp;nbsp;&lt;/span&gt;&lt;i style=&quot;background-color: initial; color: rgb(0, 0, 255);&quot;&gt;PnL&lt;/i&gt;&lt;span style=&quot;background-color: initial; color: rgb(0, 0, 255);&quot;&gt;}&amp;nbsp;&lt;/span&gt;&lt;span style=&quot;background-color: initial;&quot;&gt;in 30 days&amp;nbsp;&lt;/span&gt;&lt;span style=&quot;background-color: initial;&quot;&gt;, did the wallet has a good profitability?&lt;/span&gt;&lt;/div&gt;&lt;div&gt;&lt;span style=&quot;background-color: initial;&quot;&gt;&lt;br&gt;&lt;/span&gt;&lt;/div&gt;&lt;/div&gt;" style="rounded=1;whiteSpace=wrap;html=1;strokeColor=none;fillColor=#CCCCFF;align=left;" vertex="1" parent="1">
          <mxGeometry x="140" y="633" width="510" height="47" as="geometry" />
        </mxCell>
        <mxCell id="N2usLRuaXVRc8HSE8ele-47" value="" style="shape=image;verticalLabelPosition=bottom;labelBackgroundColor=default;verticalAlign=top;aspect=fixed;imageAspect=0;image=https://openclipart.org/image/800px/247320;" vertex="1" parent="1">
          <mxGeometry x="137" y="618" width="26" height="26" as="geometry" />
        </mxCell>
        <mxCell id="N2usLRuaXVRc8HSE8ele-48" value="&lt;blockquote style=&quot;margin: 0 0 0 40px; border: none; padding: 0px;&quot;&gt;&lt;div style=&quot;text-align: justify; padding-left: 5px; padding-right: 5px;&quot;&gt;&lt;div&gt;&lt;strong style=&quot;background-color: initial;&quot; data-end=&quot;80&quot; data-start=&quot;74&quot;&gt;&lt;span style=&quot;white-space: pre;&quot;&gt;&#x9;&lt;/span&gt;A:&lt;/strong&gt;&lt;span style=&quot;background-color: initial;&quot;&gt;&amp;nbsp;Yes, [Explanations]&lt;/span&gt;&lt;/div&gt;&lt;/div&gt;&lt;/blockquote&gt;" style="rounded=1;whiteSpace=wrap;html=1;strokeColor=none;fillColor=#CCCCFF;align=left;" vertex="1" parent="1">
          <mxGeometry x="140" y="703" width="250" height="20" as="geometry" />
        </mxCell>
        <mxCell id="N2usLRuaXVRc8HSE8ele-49" value="&lt;b&gt;Prompt 5: Realized PnL&lt;/b&gt;" style="text;html=1;align=center;verticalAlign=middle;whiteSpace=wrap;rounded=0;" vertex="1" parent="1">
          <mxGeometry x="156.5" y="623" width="143.5" height="10" as="geometry" />
        </mxCell>
        <mxCell id="N2usLRuaXVRc8HSE8ele-50" value="&lt;b&gt;Reply 5: Realized PnL&lt;/b&gt;" style="text;html=1;align=center;verticalAlign=middle;whiteSpace=wrap;rounded=0;" vertex="1" parent="1">
          <mxGeometry x="156.5" y="693" width="133.5" height="10" as="geometry" />
        </mxCell>
        <mxCell id="N2usLRuaXVRc8HSE8ele-51" value="" style="rounded=1;whiteSpace=wrap;html=1;dashed=1;strokeWidth=2;fillColor=none;" vertex="1" parent="1">
          <mxGeometry x="140" y="704" width="250" height="18" as="geometry" />
        </mxCell>
        <mxCell id="N2usLRuaXVRc8HSE8ele-52" value="&lt;blockquote style=&quot;margin: 0 0 0 40px; border: none; padding: 0px;&quot;&gt;&lt;div style=&quot;text-align: justify; padding-left: 5px; padding-right: 5px;&quot;&gt;&lt;div&gt;&lt;strong style=&quot;background-color: initial;&quot; data-end=&quot;80&quot; data-start=&quot;74&quot;&gt;&lt;span style=&quot;white-space: pre;&quot;&gt;&#x9;&lt;/span&gt;A:&lt;/strong&gt;&lt;span style=&quot;background-color: initial;&quot;&gt;&amp;nbsp;No&lt;/span&gt;&lt;span style=&quot;color: rgba(0, 0, 0, 0); font-family: monospace; font-size: 0px; text-align: start; text-wrap: nowrap; background-color: initial;&quot;&gt;%3CmxGraphModel%3E%3Croot%3E%3CmxCell%20id%3D%220%22%2F%3E%3CmxCell%20id%3D%221%22%20parent%3D%220%22%2F%3E%3CmxCell%20id%3D%222%22%20value%3D%22%22%20style%3D%22rounded%3D1%3BwhiteSpace%3Dwrap%3Bhtml%3D1%3Bdashed%3D1%3BstrokeWidth%3D2%3BfillColor%3Dnone%3B%22%20vertex%3D%221%22%20parent%3D%221%22%3E%3CmxGeometry%20x%3D%22390%22%20y%3D%22211%22%20width%3D%22250%22%20height%3D%2218%22%20as%3D%22geometry%22%2F%3E%3C%2FmxCell%3E%3C%2Froot%3E%3C%2FmxGraphModel%3E&lt;/span&gt;&lt;span style=&quot;background-color: initial;&quot;&gt;, [Explanations]&lt;/span&gt;&lt;/div&gt;&lt;/div&gt;&lt;/blockquote&gt;" style="rounded=1;whiteSpace=wrap;html=1;strokeColor=none;fillColor=#CCCCFF;align=left;" vertex="1" parent="1">
          <mxGeometry x="400" y="703" width="250" height="20" as="geometry" />
        </mxCell>
        <mxCell id="N2usLRuaXVRc8HSE8ele-53" value="&lt;b&gt;Reply 5: Realized PnL&lt;/b&gt;" style="text;html=1;align=center;verticalAlign=middle;whiteSpace=wrap;rounded=0;" vertex="1" parent="1">
          <mxGeometry x="500" y="693" width="137" height="10" as="geometry" />
        </mxCell>
        <mxCell id="N2usLRuaXVRc8HSE8ele-54" value="" style="rounded=1;whiteSpace=wrap;html=1;dashed=1;strokeWidth=2;fillColor=none;" vertex="1" parent="1">
          <mxGeometry x="400" y="704" width="250" height="18" as="geometry" />
        </mxCell>
        <mxCell id="N2usLRuaXVRc8HSE8ele-55" value="" style="shape=image;verticalLabelPosition=bottom;labelBackgroundColor=default;verticalAlign=top;aspect=fixed;imageAspect=0;image=data:image/png,iVBORw0KGgoAAAANSUhEUgAAAPoAAAD6CAYAAACI7Fo9AAAACXBIWXMAAA7EAAAOxAGVKw4bAAAJA0lEQVR4nO3dMYhdWR0G8HmiCBsrA1oIgxBIEJuNTRSmjOkCIsQIVsaBhSzsFAGDTYo0koUsJJCFhdlYx4BNukkKi9lSo4VIRmyms4iVWVCLsRXvP/LPnDtvJu/7/crDfe+d+x4fBz7OeXdxsHawBqy2Lxz3BICjJ+gQQNAhgKBDAEGHAIIOAQQdAgg6BBB0CCDoEEDQIYCgQwBBhwCCDgEEHQIIOgQQdAgg6BBA0CGAoEMAQYcAgg4BBB0CCDoEEHQIIOgQQNAhgKBDAEGHAF887glwOIu1xYl5DO7B2sHiuOfA/2dFhwCCDgEEHQIIOgRQxh2jkULt7Nmzk7H19fXWWNf+/n5rbLF3+PtQ5C2HFR0CCDoEEHQIIOgQYHGwdmI2WK20qnjrFmqVkZJtGbpF3t7e3mRMQTc/KzoEEHQIIOgQQNAhgJ1xR2CkeDvpJVvXyH1UO+0UdGOs6BBA0CGAoEMAQYcAyrhBcxdv1Vi1o6yyjNdWY8vYzaegG2NFhwCCDgEEHQIIOgRQxh2BuYu3kQKsa+Qzuq8dmXN1nJU+KzoEEHQIIOgQQNAhgDLuDcy9C667a61bdo1cN2IZ86u+Z7vl+qzoEEDQIYCgQwBBhwDKuBNmd3d3MtbdFbaxsTEZm7ugm3t+lWUUiGms6BBA0CGAoEMAQYcAyrglqcqkbrF18OLJZGxx7nLrtdWOsqoUm7sAm7ugY4wVHQIIOgQQdAgg6BBAGXcEuv/7VhVW966en4zdv3Wrdd3m5uZk7NT333/tPP9bVYp1y8JqLpWtR88PPRfGWNEhgKBDAEGHAIIOARYHa5O/3eI1uv8Zd5IeNvDq6YPJWFXQnfT76M7Pf8bVrOgQQNAhgKBDAEGHAHbGDXr//KnJ2FbRYR0cHE/puVj0uqmy2DpBc+5+z9Ss6BBA0CGAoEMAQYcAyrg3UB3HvHTp0vTC4jjmv/Y+m4z94pPfTMauX78+Gfv4448nY3fv3p2M3bhxYzqXAdX7dT+3ex+/fO+HrblU3/O96sJHrbeLY0WHAIIOAQQdAgg6BFDGDaoefND1g3e/MRk7c+bMZOx7P/naZGykeOseXa1Un1vNr7qP6n67Rr5nrOgQQdAhgKBDAEGHAMq4I1DtoPvyuelDCf75YvqAhK6qAPv6n740Gfvo0J9Ql2d/+/a/D/1+Fy5cmIxV30v3gRD0WdEhgKBDAEGHAIIOATzAYdD9q99pfYHVMctv/ezO7PP5Xwcvnhz6tYtzl2ecSe3Pn96cjO3s7LRe+8Gj33tYQ5MVHQIIOgQQdAgg6BBAGTeoesJq97/lqqOX71THMaux/f3mDJegOb/Pi7H9Yqwq47aK/+Hz5NQ+KzoEEHQIIOgQQNAhgGOqR+CPp4pjlkXBVBZ0xfu9MzCX+7duHfq1H9y+3bru893ecdtu8VZ+f2vTMo4+KzoEEHQIIOgQQNAhgJ1xb6DaBXfx4sXJddWOt6qIunz6ZetzNzc3W9eVu+pmVu1uq2xvb7eue/Ly9GSs+/09e/ZsMma3XM2KDgEEHQIIOgQQdAhgZ9ygkad8Pnj+qndhs9jqHoXt6u5kq1QlW/V+6+vd6zxNdYQVHQIIOgQQdAgg6BBAGfca3V1wlapM6hZM1XXt0m6tV5SN6M6lKtm699st3qrfY/Fs+rvZLWdFhwiCDgEEHQIIOgRQxq2NHT+d297e3qFfu3XjrzPO5DUenWldVt3HyJHeSvVaBV3Nig4BBB0CCDoEEHQIEFfGzV28jeyCq/7zrJpL9X4bGxuTsYfv9YqytU+K0q752mvXrk3GdosHOIzc7wjHWWtWdAgg6BBA0CGAoEOAlS7jTlLx1tV9bVWAVUXZw4cPW59R7UUbKd7m/g7slhtjRYcAgg4BBB0CCDoEWOkyrnJcxdvIrrDu51ZF2Yhu8dadX3W/dssthxUdAgg6BBB0CCDoEGBlyrjjeuBC9/26Rgq16ujqyH/QVe/XvbdukTdiZLdcGis6BBB0CCDoEEDQIcDKlHGV7i6uuY+ajjy8YBk7xebWvY+q3BvZLTdSeqYdXbWiQwBBhwCCDgEEHQKsdBlXGdlN1S3yup87UiYd126vkf9zm/sYLX1WdAgg6BBA0CGAoEOAuDKu2rV29uzZI//caldYZeRYadd3f/vRZOzwtWDfMr6DuXc5rgorOgQQdAgg6BBA0CHASpdxIzvPRty7en4ytlU81bRr7l11t2//fDL26zs3J2Nz72Srnuxaqb6/Jy9nnUocKzoEEHQIIOgQQNAhwEqXcSfJq6cPJmM/ffaPyVhVilU7u7q7vapdZru7f2i9truTrSoGq8/90c07k7FfXfzKZGx7e7v1uZXqc7v3scqs6BBA0CGAoEMAQYcAK13Gjewem3tXXf1+X229tnqgwYiNjXdb13V3so1Yxu7FuXcWvo2s6BBA0CGAoEMAQYcAK13GVbukqqdjLvamT9GsdHejbT16Phm7V134zR9Phnb+Mj2PWe0Uq46aVjveunOuPrcqrKoi79atDydjm5ubk7HqPnZ2diZjT16efu08D6O7c29VnpxasaJDAEGHAIIOAQQdAqxMGVeWbGu9km1u1QMhPiuKt6qwqoqjS5cuzTOxI1LNr7qPuqAr3vDl09b7zV22rjIrOgQQdAgg6BBA0CHAypRxI+beLTdyBLLaKVaVWF3r672jsNV13fuovoNqF9zIfTDGig4BBB0CCDoEEHQIsNJl3Mixw7l3WFUPZkhTFXR//928u+C6VvlIasWKDgEEHQIIOgQQdAiwOFiLP8E3ZOQobLcQunrzw7fuR6rKx+r4blWyVdLKs7lZ0SGAoEMAQYcAgg4BlHFLUpV2x/U/dyOl2NyUbMthRYcAgg4BBB0CCDoEUMYdo6p4u3LlyuS67hNRq+Odjx8/PsTMljcXZdxyWNEhgKBDAEGHAIIOAVb6P+PeRt2ya8QyduQt4z7os6JDAEGHAIIOAQQdAtgZd4yWcSS1clzHY7tzYX5WdAgg6BBA0CGAoEMAZRwEsKJDAEGHAIIOAQQdAgg6BBB0CCDoEEDQIYCgQwBBhwCCDgEEHQIIOgQQdAjwH8cV9ZEMMgoVAAAAAElFTkSuQmCC;" vertex="1" parent="1">
          <mxGeometry x="130" y="675" width="40" height="40" as="geometry" />
        </mxCell>
        <mxCell id="N2usLRuaXVRc8HSE8ele-56" value="" style="shape=image;verticalLabelPosition=bottom;labelBackgroundColor=default;verticalAlign=top;aspect=fixed;imageAspect=0;image=data:image/png,iVBORw0KGgoAAAANSUhEUgAAAPoAAAD6CAYAAACI7Fo9AAAACXBIWXMAAA7EAAAOxAGVKw4bAAAJA0lEQVR4nO3dMYhdWR0G8HmiCBsrA1oIgxBIEJuNTRSmjOkCIsQIVsaBhSzsFAGDTYo0koUsJJCFhdlYx4BNukkKi9lSo4VIRmyms4iVWVCLsRXvP/LPnDtvJu/7/crDfe+d+x4fBz7OeXdxsHawBqy2Lxz3BICjJ+gQQNAhgKBDAEGHAIIOAQQdAgg6BBB0CCDoEEDQIYCgQwBBhwCCDgEEHQIIOgQQdAgg6BBA0CGAoEMAQYcAgg4BBB0CCDoEEHQIIOgQQNAhgKBDAEGHAF887glwOIu1xYl5DO7B2sHiuOfA/2dFhwCCDgEEHQIIOgRQxh2jkULt7Nmzk7H19fXWWNf+/n5rbLF3+PtQ5C2HFR0CCDoEEHQIIOgQYHGwdmI2WK20qnjrFmqVkZJtGbpF3t7e3mRMQTc/KzoEEHQIIOgQQNAhgJ1xR2CkeDvpJVvXyH1UO+0UdGOs6BBA0CGAoEMAQYcAyrhBcxdv1Vi1o6yyjNdWY8vYzaegG2NFhwCCDgEEHQIIOgRQxh2BuYu3kQKsa+Qzuq8dmXN1nJU+KzoEEHQIIOgQQNAhgDLuDcy9C667a61bdo1cN2IZ86u+Z7vl+qzoEEDQIYCgQwBBhwDKuBNmd3d3MtbdFbaxsTEZm7ugm3t+lWUUiGms6BBA0CGAoEMAQYcAyrglqcqkbrF18OLJZGxx7nLrtdWOsqoUm7sAm7ugY4wVHQIIOgQQdAgg6BBAGXcEuv/7VhVW966en4zdv3Wrdd3m5uZk7NT333/tPP9bVYp1y8JqLpWtR88PPRfGWNEhgKBDAEGHAIIOARYHa5O/3eI1uv8Zd5IeNvDq6YPJWFXQnfT76M7Pf8bVrOgQQNAhgKBDAEGHAHbGDXr//KnJ2FbRYR0cHE/puVj0uqmy2DpBc+5+z9Ss6BBA0CGAoEMAQYcAyrg3UB3HvHTp0vTC4jjmv/Y+m4z94pPfTMauX78+Gfv4448nY3fv3p2M3bhxYzqXAdX7dT+3ex+/fO+HrblU3/O96sJHrbeLY0WHAIIOAQQdAgg6BFDGDaoefND1g3e/MRk7c+bMZOx7P/naZGykeOseXa1Un1vNr7qP6n67Rr5nrOgQQdAhgKBDAEGHAMq4I1DtoPvyuelDCf75YvqAhK6qAPv6n740Gfvo0J9Ql2d/+/a/D/1+Fy5cmIxV30v3gRD0WdEhgKBDAEGHAIIOATzAYdD9q99pfYHVMctv/ezO7PP5Xwcvnhz6tYtzl2ecSe3Pn96cjO3s7LRe+8Gj33tYQ5MVHQIIOgQQdAgg6BBAGTeoesJq97/lqqOX71THMaux/f3mDJegOb/Pi7H9Yqwq47aK/+Hz5NQ+KzoEEHQIIOgQQNAhgGOqR+CPp4pjlkXBVBZ0xfu9MzCX+7duHfq1H9y+3bru893ecdtu8VZ+f2vTMo4+KzoEEHQIIOgQQNAhgJ1xb6DaBXfx4sXJddWOt6qIunz6ZetzNzc3W9eVu+pmVu1uq2xvb7eue/Ly9GSs+/09e/ZsMma3XM2KDgEEHQIIOgQQdAhgZ9ygkad8Pnj+qndhs9jqHoXt6u5kq1QlW/V+6+vd6zxNdYQVHQIIOgQQdAgg6BBAGfca3V1wlapM6hZM1XXt0m6tV5SN6M6lKtm699st3qrfY/Fs+rvZLWdFhwiCDgEEHQIIOgRQxq2NHT+d297e3qFfu3XjrzPO5DUenWldVt3HyJHeSvVaBV3Nig4BBB0CCDoEEHQIEFfGzV28jeyCq/7zrJpL9X4bGxuTsYfv9YqytU+K0q752mvXrk3GdosHOIzc7wjHWWtWdAgg6BBA0CGAoEOAlS7jTlLx1tV9bVWAVUXZw4cPW59R7UUbKd7m/g7slhtjRYcAgg4BBB0CCDoEWOkyrnJcxdvIrrDu51ZF2Yhu8dadX3W/dssthxUdAgg6BBB0CCDoEGBlyrjjeuBC9/26Rgq16ujqyH/QVe/XvbdukTdiZLdcGis6BBB0CCDoEEDQIcDKlHGV7i6uuY+ajjy8YBk7xebWvY+q3BvZLTdSeqYdXbWiQwBBhwCCDgEEHQKsdBlXGdlN1S3yup87UiYd126vkf9zm/sYLX1WdAgg6BBA0CGAoEOAuDKu2rV29uzZI//caldYZeRYadd3f/vRZOzwtWDfMr6DuXc5rgorOgQQdAgg6BBA0CHASpdxIzvPRty7en4ytlU81bRr7l11t2//fDL26zs3J2Nz72Srnuxaqb6/Jy9nnUocKzoEEHQIIOgQQNAhwEqXcSfJq6cPJmM/ffaPyVhVilU7u7q7vapdZru7f2i9truTrSoGq8/90c07k7FfXfzKZGx7e7v1uZXqc7v3scqs6BBA0CGAoEMAQYcAK13Gjewem3tXXf1+X229tnqgwYiNjXdb13V3so1Yxu7FuXcWvo2s6BBA0CGAoEMAQYcAK13GVbukqqdjLvamT9GsdHejbT16Phm7V134zR9Phnb+Mj2PWe0Uq46aVjveunOuPrcqrKoi79atDydjm5ubk7HqPnZ2diZjT16efu08D6O7c29VnpxasaJDAEGHAIIOAQQdAqxMGVeWbGu9km1u1QMhPiuKt6qwqoqjS5cuzTOxI1LNr7qPuqAr3vDl09b7zV22rjIrOgQQdAgg6BBA0CHAypRxI+beLTdyBLLaKVaVWF3r672jsNV13fuovoNqF9zIfTDGig4BBB0CCDoEEHQIsNJl3Mixw7l3WFUPZkhTFXR//928u+C6VvlIasWKDgEEHQIIOgQQdAiwOFiLP8E3ZOQobLcQunrzw7fuR6rKx+r4blWyVdLKs7lZ0SGAoEMAQYcAgg4BlHFLUpV2x/U/dyOl2NyUbMthRYcAgg4BBB0CCDoEUMYdo6p4u3LlyuS67hNRq+Odjx8/PsTMljcXZdxyWNEhgKBDAEGHAIIOAVb6P+PeRt2ya8QyduQt4z7os6JDAEGHAIIOAQQdAtgZd4yWcSS1clzHY7tzYX5WdAgg6BBA0CGAoEMAZRwEsKJDAEGHAIIOAQQdAgg6BBB0CCDoEEDQIYCgQwBBhwCCDgEEHQIIOgQQdAjwH8cV9ZEMMgoVAAAAAElFTkSuQmCC;" vertex="1" parent="1">
          <mxGeometry x="620" y="675" width="40" height="40" as="geometry" />
        </mxCell>
        <mxCell id="N2usLRuaXVRc8HSE8ele-59" value="" style="endArrow=classicThin;html=1;rounded=0;endFill=1;entryX=0.687;entryY=-0.017;entryDx=0;entryDy=0;entryPerimeter=0;" edge="1" parent="1">
          <mxGeometry width="50" height="50" relative="1" as="geometry">
            <mxPoint x="431" y="605" as="sourcePoint" />
            <mxPoint x="431.3699999999999" y="631.98" as="targetPoint" />
          </mxGeometry>
        </mxCell>
        <mxCell id="N2usLRuaXVRc8HSE8ele-61" style="edgeStyle=orthogonalEdgeStyle;rounded=1;orthogonalLoop=1;jettySize=auto;html=1;exitX=0.5;exitY=1;exitDx=0;exitDy=0;entryX=0.891;entryY=-0.056;entryDx=0;entryDy=0;entryPerimeter=0;curved=0;endArrow=classicThin;endFill=1;" edge="1" parent="1" source="EyACuZ3WsZrGH7T3GwWN-2" target="EyACuZ3WsZrGH7T3GwWN-12">
          <mxGeometry relative="1" as="geometry">
            <Array as="points">
              <mxPoint x="395" y="200" />
              <mxPoint x="363" y="200" />
            </Array>
          </mxGeometry>
        </mxCell>
        <mxCell id="N2usLRuaXVRc8HSE8ele-62" style="edgeStyle=orthogonalEdgeStyle;rounded=1;orthogonalLoop=1;jettySize=auto;html=1;exitX=0.5;exitY=1;exitDx=0;exitDy=0;entryX=0.119;entryY=-0.087;entryDx=0;entryDy=0;entryPerimeter=0;curved=0;endArrow=classicThin;endFill=1;" edge="1" parent="1" source="EyACuZ3WsZrGH7T3GwWN-2" target="EyACuZ3WsZrGH7T3GwWN-18">
          <mxGeometry relative="1" as="geometry">
            <Array as="points">
              <mxPoint x="395" y="200" />
              <mxPoint x="430" y="200" />
            </Array>
          </mxGeometry>
        </mxCell>
        <mxCell id="N2usLRuaXVRc8HSE8ele-65" style="edgeStyle=orthogonalEdgeStyle;rounded=1;orthogonalLoop=1;jettySize=auto;html=1;exitX=0.5;exitY=1;exitDx=0;exitDy=0;entryX=0.891;entryY=-0.056;entryDx=0;entryDy=0;entryPerimeter=0;curved=0;endArrow=classicThin;endFill=1;" edge="1" parent="1">
          <mxGeometry relative="1" as="geometry">
            <mxPoint x="395" y="310" as="sourcePoint" />
            <mxPoint x="363" y="332" as="targetPoint" />
            <Array as="points">
              <mxPoint x="395" y="320" />
              <mxPoint x="363" y="320" />
            </Array>
          </mxGeometry>
        </mxCell>
        <mxCell id="N2usLRuaXVRc8HSE8ele-66" style="edgeStyle=orthogonalEdgeStyle;rounded=1;orthogonalLoop=1;jettySize=auto;html=1;exitX=0.5;exitY=1;exitDx=0;exitDy=0;entryX=0.119;entryY=-0.087;entryDx=0;entryDy=0;entryPerimeter=0;curved=0;endArrow=classicThin;endFill=1;" edge="1" parent="1">
          <mxGeometry relative="1" as="geometry">
            <mxPoint x="395" y="310" as="sourcePoint" />
            <mxPoint x="430" y="331" as="targetPoint" />
            <Array as="points">
              <mxPoint x="395" y="320" />
              <mxPoint x="430" y="320" />
            </Array>
          </mxGeometry>
        </mxCell>
        <mxCell id="N2usLRuaXVRc8HSE8ele-69" style="edgeStyle=orthogonalEdgeStyle;rounded=1;orthogonalLoop=1;jettySize=auto;html=1;exitX=0.5;exitY=1;exitDx=0;exitDy=0;entryX=0.891;entryY=-0.056;entryDx=0;entryDy=0;entryPerimeter=0;curved=0;endArrow=classicThin;endFill=1;" edge="1" parent="1">
          <mxGeometry relative="1" as="geometry">
            <mxPoint x="395" y="430" as="sourcePoint" />
            <mxPoint x="363" y="452" as="targetPoint" />
            <Array as="points">
              <mxPoint x="395" y="440" />
              <mxPoint x="363" y="440" />
            </Array>
          </mxGeometry>
        </mxCell>
        <mxCell id="N2usLRuaXVRc8HSE8ele-70" style="edgeStyle=orthogonalEdgeStyle;rounded=1;orthogonalLoop=1;jettySize=auto;html=1;exitX=0.5;exitY=1;exitDx=0;exitDy=0;entryX=0.119;entryY=-0.087;entryDx=0;entryDy=0;entryPerimeter=0;curved=0;endArrow=classicThin;endFill=1;" edge="1" parent="1">
          <mxGeometry relative="1" as="geometry">
            <mxPoint x="395" y="430" as="sourcePoint" />
            <mxPoint x="430" y="451" as="targetPoint" />
            <Array as="points">
              <mxPoint x="395" y="440" />
              <mxPoint x="430" y="440" />
            </Array>
          </mxGeometry>
        </mxCell>
        <mxCell id="N2usLRuaXVRc8HSE8ele-72" style="edgeStyle=orthogonalEdgeStyle;rounded=1;orthogonalLoop=1;jettySize=auto;html=1;exitX=0.5;exitY=1;exitDx=0;exitDy=0;entryX=0.891;entryY=-0.056;entryDx=0;entryDy=0;entryPerimeter=0;curved=0;endArrow=classicThin;endFill=1;" edge="1" parent="1">
          <mxGeometry relative="1" as="geometry">
            <mxPoint x="395" y="562" as="sourcePoint" />
            <mxPoint x="363" y="584" as="targetPoint" />
            <Array as="points">
              <mxPoint x="395" y="572" />
              <mxPoint x="363" y="572" />
            </Array>
          </mxGeometry>
        </mxCell>
        <mxCell id="N2usLRuaXVRc8HSE8ele-73" style="edgeStyle=orthogonalEdgeStyle;rounded=1;orthogonalLoop=1;jettySize=auto;html=1;exitX=0.5;exitY=1;exitDx=0;exitDy=0;entryX=0.119;entryY=-0.087;entryDx=0;entryDy=0;entryPerimeter=0;curved=0;endArrow=classicThin;endFill=1;" edge="1" parent="1">
          <mxGeometry relative="1" as="geometry">
            <mxPoint x="395" y="562" as="sourcePoint" />
            <mxPoint x="430" y="583" as="targetPoint" />
            <Array as="points">
              <mxPoint x="395" y="572" />
              <mxPoint x="430" y="572" />
            </Array>
          </mxGeometry>
        </mxCell>
        <mxCell id="N2usLRuaXVRc8HSE8ele-74" style="edgeStyle=orthogonalEdgeStyle;rounded=1;orthogonalLoop=1;jettySize=auto;html=1;exitX=0.5;exitY=1;exitDx=0;exitDy=0;entryX=0.891;entryY=-0.056;entryDx=0;entryDy=0;entryPerimeter=0;curved=0;endArrow=classicThin;endFill=1;" edge="1" parent="1">
          <mxGeometry relative="1" as="geometry">
            <mxPoint x="395" y="681" as="sourcePoint" />
            <mxPoint x="363" y="703" as="targetPoint" />
            <Array as="points">
              <mxPoint x="395" y="691" />
              <mxPoint x="363" y="691" />
            </Array>
          </mxGeometry>
        </mxCell>
        <mxCell id="N2usLRuaXVRc8HSE8ele-75" style="edgeStyle=orthogonalEdgeStyle;rounded=1;orthogonalLoop=1;jettySize=auto;html=1;exitX=0.5;exitY=1;exitDx=0;exitDy=0;entryX=0.119;entryY=-0.087;entryDx=0;entryDy=0;entryPerimeter=0;curved=0;endArrow=classicThin;endFill=1;" edge="1" parent="1">
          <mxGeometry relative="1" as="geometry">
            <mxPoint x="395" y="681" as="sourcePoint" />
            <mxPoint x="430" y="702" as="targetPoint" />
            <Array as="points">
              <mxPoint x="395" y="691" />
              <mxPoint x="430" y="691" />
            </Array>
          </mxGeometry>
        </mxCell>
        <mxCell id="N2usLRuaXVRc8HSE8ele-76" value="&lt;div style=&quot;text-align: justify; padding-left: 5px; padding-right: 5px;&quot;&gt;&lt;div&gt;&lt;div&gt;&lt;strong style=&quot;background-color: initial;&quot; data-end=&quot;80&quot; data-start=&quot;74&quot;&gt;&lt;br&gt;&lt;/strong&gt;&lt;/div&gt;&lt;div&gt;&lt;strong style=&quot;background-color: initial;&quot; data-end=&quot;80&quot; data-start=&quot;74&quot;&gt;Q:&lt;/strong&gt;&lt;span style=&quot;background-color: initial;&quot;&gt;&amp;nbsp;Given that the wallet has PnL&amp;nbsp;&lt;/span&gt;&lt;span style=&quot;background-color: initial; color: rgb(0, 0, 255);&quot;&gt;{7D&amp;nbsp;&lt;/span&gt;&lt;i style=&quot;background-color: initial; color: rgb(0, 0, 255);&quot;&gt;PnL&lt;/i&gt;&lt;span style=&quot;background-color: initial; color: rgb(0, 0, 255);&quot;&gt;}&amp;nbsp;&lt;/span&gt;&lt;span style=&quot;background-color: initial;&quot;&gt;in 7 days and&amp;nbsp;&lt;/span&gt;&lt;span style=&quot;background-color: initial; color: rgb(0, 0, 255);&quot;&gt;{30D&amp;nbsp;&lt;/span&gt;&lt;i style=&quot;background-color: initial; color: rgb(0, 0, 255);&quot;&gt;PnL&lt;/i&gt;&lt;span style=&quot;background-color: initial; color: rgb(0, 0, 255);&quot;&gt;}&amp;nbsp;&lt;/span&gt;&lt;span style=&quot;background-color: initial;&quot;&gt;in 30 days&amp;nbsp;&lt;/span&gt;&lt;span style=&quot;background-color: initial;&quot;&gt;, did the wallet has a good profitability?&lt;/span&gt;&lt;br&gt;&lt;/div&gt;&lt;/div&gt;&lt;div&gt;&lt;span style=&quot;background-color: initial;&quot;&gt;&lt;br&gt;&lt;/span&gt;&lt;/div&gt;&lt;/div&gt;" style="rounded=1;whiteSpace=wrap;html=1;strokeColor=none;fillColor=#CCCCFF;align=left;" vertex="1" parent="1">
          <mxGeometry x="140" y="751" width="510" height="47" as="geometry" />
        </mxCell>
        <mxCell id="N2usLRuaXVRc8HSE8ele-77" value="" style="shape=image;verticalLabelPosition=bottom;labelBackgroundColor=default;verticalAlign=top;aspect=fixed;imageAspect=0;image=https://openclipart.org/image/800px/247320;" vertex="1" parent="1">
          <mxGeometry x="137" y="736" width="26" height="26" as="geometry" />
        </mxCell>
        <mxCell id="N2usLRuaXVRc8HSE8ele-78" value="&lt;blockquote style=&quot;margin: 0 0 0 40px; border: none; padding: 0px;&quot;&gt;&lt;div style=&quot;text-align: justify; padding-left: 5px; padding-right: 5px;&quot;&gt;&lt;div&gt;&lt;strong style=&quot;background-color: initial;&quot; data-end=&quot;80&quot; data-start=&quot;74&quot;&gt;&lt;span style=&quot;white-space: pre;&quot;&gt;&#x9;&lt;/span&gt;A:&lt;/strong&gt;&lt;span style=&quot;background-color: initial;&quot;&gt;&amp;nbsp;Yes, [Explanations]&lt;/span&gt;&lt;/div&gt;&lt;/div&gt;&lt;/blockquote&gt;" style="rounded=1;whiteSpace=wrap;html=1;strokeColor=none;fillColor=#CCCCFF;align=left;" vertex="1" parent="1">
          <mxGeometry x="140" y="820" width="250" height="20" as="geometry" />
        </mxCell>
        <mxCell id="N2usLRuaXVRc8HSE8ele-79" value="&lt;b&gt;Prompt 6: Win Rate&lt;/b&gt;" style="text;html=1;align=center;verticalAlign=middle;whiteSpace=wrap;rounded=0;" vertex="1" parent="1">
          <mxGeometry x="156.5" y="741" width="123.5" height="10" as="geometry" />
        </mxCell>
        <mxCell id="N2usLRuaXVRc8HSE8ele-80" value="&lt;b&gt;Reply&amp;nbsp;&lt;/b&gt;&lt;b&gt;6: Win Rate&lt;/b&gt;" style="text;html=1;align=center;verticalAlign=middle;whiteSpace=wrap;rounded=0;" vertex="1" parent="1">
          <mxGeometry x="156.5" y="810" width="113.5" height="10" as="geometry" />
        </mxCell>
        <mxCell id="N2usLRuaXVRc8HSE8ele-81" value="" style="rounded=1;whiteSpace=wrap;html=1;dashed=1;strokeWidth=2;fillColor=none;" vertex="1" parent="1">
          <mxGeometry x="140" y="821" width="250" height="18" as="geometry" />
        </mxCell>
        <mxCell id="N2usLRuaXVRc8HSE8ele-82" value="&lt;blockquote style=&quot;margin: 0 0 0 40px; border: none; padding: 0px;&quot;&gt;&lt;div style=&quot;text-align: justify; padding-left: 5px; padding-right: 5px;&quot;&gt;&lt;div&gt;&lt;strong style=&quot;background-color: initial;&quot; data-end=&quot;80&quot; data-start=&quot;74&quot;&gt;&lt;span style=&quot;white-space: pre;&quot;&gt;&#x9;&lt;/span&gt;A:&lt;/strong&gt;&lt;span style=&quot;background-color: initial;&quot;&gt;&amp;nbsp;No&lt;/span&gt;&lt;span style=&quot;color: rgba(0, 0, 0, 0); font-family: monospace; font-size: 0px; text-align: start; text-wrap: nowrap; background-color: initial;&quot;&gt;%3CmxGraphModel%3E%3Croot%3E%3CmxCell%20id%3D%220%22%2F%3E%3CmxCell%20id%3D%221%22%20parent%3D%220%22%2F%3E%3CmxCell%20id%3D%222%22%20value%3D%22%22%20style%3D%22rounded%3D1%3BwhiteSpace%3Dwrap%3Bhtml%3D1%3Bdashed%3D1%3BstrokeWidth%3D2%3BfillColor%3Dnone%3B%22%20vertex%3D%221%22%20parent%3D%221%22%3E%3CmxGeometry%20x%3D%22390%22%20y%3D%22211%22%20width%3D%22250%22%20height%3D%2218%22%20as%3D%22geometry%22%2F%3E%3C%2FmxCell%3E%3C%2Froot%3E%3C%2FmxGraphModel%3E&lt;/span&gt;&lt;span style=&quot;background-color: initial;&quot;&gt;, [Explanations]&lt;/span&gt;&lt;/div&gt;&lt;/div&gt;&lt;/blockquote&gt;" style="rounded=1;whiteSpace=wrap;html=1;strokeColor=none;fillColor=#CCCCFF;align=left;" vertex="1" parent="1">
          <mxGeometry x="400" y="820" width="250" height="20" as="geometry" />
        </mxCell>
        <mxCell id="N2usLRuaXVRc8HSE8ele-83" value="&lt;b&gt;Reply&amp;nbsp;&lt;/b&gt;&lt;b&gt;6: Win Rate&lt;/b&gt;" style="text;html=1;align=center;verticalAlign=middle;whiteSpace=wrap;rounded=0;" vertex="1" parent="1">
          <mxGeometry x="520" y="810" width="117" height="10" as="geometry" />
        </mxCell>
        <mxCell id="N2usLRuaXVRc8HSE8ele-84" value="" style="rounded=1;whiteSpace=wrap;html=1;dashed=1;strokeWidth=2;fillColor=none;" vertex="1" parent="1">
          <mxGeometry x="400" y="821" width="250" height="18" as="geometry" />
        </mxCell>
        <mxCell id="N2usLRuaXVRc8HSE8ele-85" value="" style="shape=image;verticalLabelPosition=bottom;labelBackgroundColor=default;verticalAlign=top;aspect=fixed;imageAspect=0;image=data:image/png,iVBORw0KGgoAAAANSUhEUgAAAPoAAAD6CAYAAACI7Fo9AAAACXBIWXMAAA7EAAAOxAGVKw4bAAAJA0lEQVR4nO3dMYhdWR0G8HmiCBsrA1oIgxBIEJuNTRSmjOkCIsQIVsaBhSzsFAGDTYo0koUsJJCFhdlYx4BNukkKi9lSo4VIRmyms4iVWVCLsRXvP/LPnDtvJu/7/crDfe+d+x4fBz7OeXdxsHawBqy2Lxz3BICjJ+gQQNAhgKBDAEGHAIIOAQQdAgg6BBB0CCDoEEDQIYCgQwBBhwCCDgEEHQIIOgQQdAgg6BBA0CGAoEMAQYcAgg4BBB0CCDoEEHQIIOgQQNAhgKBDAEGHAF887glwOIu1xYl5DO7B2sHiuOfA/2dFhwCCDgEEHQIIOgRQxh2jkULt7Nmzk7H19fXWWNf+/n5rbLF3+PtQ5C2HFR0CCDoEEHQIIOgQYHGwdmI2WK20qnjrFmqVkZJtGbpF3t7e3mRMQTc/KzoEEHQIIOgQQNAhgJ1xR2CkeDvpJVvXyH1UO+0UdGOs6BBA0CGAoEMAQYcAyrhBcxdv1Vi1o6yyjNdWY8vYzaegG2NFhwCCDgEEHQIIOgRQxh2BuYu3kQKsa+Qzuq8dmXN1nJU+KzoEEHQIIOgQQNAhgDLuDcy9C667a61bdo1cN2IZ86u+Z7vl+qzoEEDQIYCgQwBBhwDKuBNmd3d3MtbdFbaxsTEZm7ugm3t+lWUUiGms6BBA0CGAoEMAQYcAyrglqcqkbrF18OLJZGxx7nLrtdWOsqoUm7sAm7ugY4wVHQIIOgQQdAgg6BBAGXcEuv/7VhVW966en4zdv3Wrdd3m5uZk7NT333/tPP9bVYp1y8JqLpWtR88PPRfGWNEhgKBDAEGHAIIOARYHa5O/3eI1uv8Zd5IeNvDq6YPJWFXQnfT76M7Pf8bVrOgQQNAhgKBDAEGHAHbGDXr//KnJ2FbRYR0cHE/puVj0uqmy2DpBc+5+z9Ss6BBA0CGAoEMAQYcAyrg3UB3HvHTp0vTC4jjmv/Y+m4z94pPfTMauX78+Gfv4448nY3fv3p2M3bhxYzqXAdX7dT+3ex+/fO+HrblU3/O96sJHrbeLY0WHAIIOAQQdAgg6BFDGDaoefND1g3e/MRk7c+bMZOx7P/naZGykeOseXa1Un1vNr7qP6n67Rr5nrOgQQdAhgKBDAEGHAMq4I1DtoPvyuelDCf75YvqAhK6qAPv6n740Gfvo0J9Ql2d/+/a/D/1+Fy5cmIxV30v3gRD0WdEhgKBDAEGHAIIOATzAYdD9q99pfYHVMctv/ezO7PP5Xwcvnhz6tYtzl2ecSe3Pn96cjO3s7LRe+8Gj33tYQ5MVHQIIOgQQdAgg6BBAGTeoesJq97/lqqOX71THMaux/f3mDJegOb/Pi7H9Yqwq47aK/+Hz5NQ+KzoEEHQIIOgQQNAhgGOqR+CPp4pjlkXBVBZ0xfu9MzCX+7duHfq1H9y+3bru893ecdtu8VZ+f2vTMo4+KzoEEHQIIOgQQNAhgJ1xb6DaBXfx4sXJddWOt6qIunz6ZetzNzc3W9eVu+pmVu1uq2xvb7eue/Ly9GSs+/09e/ZsMma3XM2KDgEEHQIIOgQQdAhgZ9ygkad8Pnj+qndhs9jqHoXt6u5kq1QlW/V+6+vd6zxNdYQVHQIIOgQQdAgg6BBAGfca3V1wlapM6hZM1XXt0m6tV5SN6M6lKtm699st3qrfY/Fs+rvZLWdFhwiCDgEEHQIIOgRQxq2NHT+d297e3qFfu3XjrzPO5DUenWldVt3HyJHeSvVaBV3Nig4BBB0CCDoEEHQIEFfGzV28jeyCq/7zrJpL9X4bGxuTsYfv9YqytU+K0q752mvXrk3GdosHOIzc7wjHWWtWdAgg6BBA0CGAoEOAlS7jTlLx1tV9bVWAVUXZw4cPW59R7UUbKd7m/g7slhtjRYcAgg4BBB0CCDoEWOkyrnJcxdvIrrDu51ZF2Yhu8dadX3W/dssthxUdAgg6BBB0CCDoEGBlyrjjeuBC9/26Rgq16ujqyH/QVe/XvbdukTdiZLdcGis6BBB0CCDoEEDQIcDKlHGV7i6uuY+ajjy8YBk7xebWvY+q3BvZLTdSeqYdXbWiQwBBhwCCDgEEHQKsdBlXGdlN1S3yup87UiYd126vkf9zm/sYLX1WdAgg6BBA0CGAoEOAuDKu2rV29uzZI//caldYZeRYadd3f/vRZOzwtWDfMr6DuXc5rgorOgQQdAgg6BBA0CHASpdxIzvPRty7en4ytlU81bRr7l11t2//fDL26zs3J2Nz72Srnuxaqb6/Jy9nnUocKzoEEHQIIOgQQNAhwEqXcSfJq6cPJmM/ffaPyVhVilU7u7q7vapdZru7f2i9truTrSoGq8/90c07k7FfXfzKZGx7e7v1uZXqc7v3scqs6BBA0CGAoEMAQYcAK13Gjewem3tXXf1+X229tnqgwYiNjXdb13V3so1Yxu7FuXcWvo2s6BBA0CGAoEMAQYcAK13GVbukqqdjLvamT9GsdHejbT16Phm7V134zR9Phnb+Mj2PWe0Uq46aVjveunOuPrcqrKoi79atDydjm5ubk7HqPnZ2diZjT16efu08D6O7c29VnpxasaJDAEGHAIIOAQQdAqxMGVeWbGu9km1u1QMhPiuKt6qwqoqjS5cuzTOxI1LNr7qPuqAr3vDl09b7zV22rjIrOgQQdAgg6BBA0CHAypRxI+beLTdyBLLaKVaVWF3r672jsNV13fuovoNqF9zIfTDGig4BBB0CCDoEEHQIsNJl3Mixw7l3WFUPZkhTFXR//928u+C6VvlIasWKDgEEHQIIOgQQdAiwOFiLP8E3ZOQobLcQunrzw7fuR6rKx+r4blWyVdLKs7lZ0SGAoEMAQYcAgg4BlHFLUpV2x/U/dyOl2NyUbMthRYcAgg4BBB0CCDoEUMYdo6p4u3LlyuS67hNRq+Odjx8/PsTMljcXZdxyWNEhgKBDAEGHAIIOAVb6P+PeRt2ya8QyduQt4z7os6JDAEGHAIIOAQQdAtgZd4yWcSS1clzHY7tzYX5WdAgg6BBA0CGAoEMAZRwEsKJDAEGHAIIOAQQdAgg6BBB0CCDoEEDQIYCgQwBBhwCCDgEEHQIIOgQQdAjwH8cV9ZEMMgoVAAAAAElFTkSuQmCC;" vertex="1" parent="1">
          <mxGeometry x="130" y="800" width="40" height="40" as="geometry" />
        </mxCell>
        <mxCell id="N2usLRuaXVRc8HSE8ele-86" value="" style="shape=image;verticalLabelPosition=bottom;labelBackgroundColor=default;verticalAlign=top;aspect=fixed;imageAspect=0;image=data:image/png,iVBORw0KGgoAAAANSUhEUgAAAPoAAAD6CAYAAACI7Fo9AAAACXBIWXMAAA7EAAAOxAGVKw4bAAAJA0lEQVR4nO3dMYhdWR0G8HmiCBsrA1oIgxBIEJuNTRSmjOkCIsQIVsaBhSzsFAGDTYo0koUsJJCFhdlYx4BNukkKi9lSo4VIRmyms4iVWVCLsRXvP/LPnDtvJu/7/crDfe+d+x4fBz7OeXdxsHawBqy2Lxz3BICjJ+gQQNAhgKBDAEGHAIIOAQQdAgg6BBB0CCDoEEDQIYCgQwBBhwCCDgEEHQIIOgQQdAgg6BBA0CGAoEMAQYcAgg4BBB0CCDoEEHQIIOgQQNAhgKBDAEGHAF887glwOIu1xYl5DO7B2sHiuOfA/2dFhwCCDgEEHQIIOgRQxh2jkULt7Nmzk7H19fXWWNf+/n5rbLF3+PtQ5C2HFR0CCDoEEHQIIOgQYHGwdmI2WK20qnjrFmqVkZJtGbpF3t7e3mRMQTc/KzoEEHQIIOgQQNAhgJ1xR2CkeDvpJVvXyH1UO+0UdGOs6BBA0CGAoEMAQYcAyrhBcxdv1Vi1o6yyjNdWY8vYzaegG2NFhwCCDgEEHQIIOgRQxh2BuYu3kQKsa+Qzuq8dmXN1nJU+KzoEEHQIIOgQQNAhgDLuDcy9C667a61bdo1cN2IZ86u+Z7vl+qzoEEDQIYCgQwBBhwDKuBNmd3d3MtbdFbaxsTEZm7ugm3t+lWUUiGms6BBA0CGAoEMAQYcAyrglqcqkbrF18OLJZGxx7nLrtdWOsqoUm7sAm7ugY4wVHQIIOgQQdAgg6BBAGXcEuv/7VhVW966en4zdv3Wrdd3m5uZk7NT333/tPP9bVYp1y8JqLpWtR88PPRfGWNEhgKBDAEGHAIIOARYHa5O/3eI1uv8Zd5IeNvDq6YPJWFXQnfT76M7Pf8bVrOgQQNAhgKBDAEGHAHbGDXr//KnJ2FbRYR0cHE/puVj0uqmy2DpBc+5+z9Ss6BBA0CGAoEMAQYcAyrg3UB3HvHTp0vTC4jjmv/Y+m4z94pPfTMauX78+Gfv4448nY3fv3p2M3bhxYzqXAdX7dT+3ex+/fO+HrblU3/O96sJHrbeLY0WHAIIOAQQdAgg6BFDGDaoefND1g3e/MRk7c+bMZOx7P/naZGykeOseXa1Un1vNr7qP6n67Rr5nrOgQQdAhgKBDAEGHAMq4I1DtoPvyuelDCf75YvqAhK6qAPv6n740Gfvo0J9Ql2d/+/a/D/1+Fy5cmIxV30v3gRD0WdEhgKBDAEGHAIIOATzAYdD9q99pfYHVMctv/ezO7PP5Xwcvnhz6tYtzl2ecSe3Pn96cjO3s7LRe+8Gj33tYQ5MVHQIIOgQQdAgg6BBAGTeoesJq97/lqqOX71THMaux/f3mDJegOb/Pi7H9Yqwq47aK/+Hz5NQ+KzoEEHQIIOgQQNAhgGOqR+CPp4pjlkXBVBZ0xfu9MzCX+7duHfq1H9y+3bru893ecdtu8VZ+f2vTMo4+KzoEEHQIIOgQQNAhgJ1xb6DaBXfx4sXJddWOt6qIunz6ZetzNzc3W9eVu+pmVu1uq2xvb7eue/Ly9GSs+/09e/ZsMma3XM2KDgEEHQIIOgQQdAhgZ9ygkad8Pnj+qndhs9jqHoXt6u5kq1QlW/V+6+vd6zxNdYQVHQIIOgQQdAgg6BBAGfca3V1wlapM6hZM1XXt0m6tV5SN6M6lKtm699st3qrfY/Fs+rvZLWdFhwiCDgEEHQIIOgRQxq2NHT+d297e3qFfu3XjrzPO5DUenWldVt3HyJHeSvVaBV3Nig4BBB0CCDoEEHQIEFfGzV28jeyCq/7zrJpL9X4bGxuTsYfv9YqytU+K0q752mvXrk3GdosHOIzc7wjHWWtWdAgg6BBA0CGAoEOAlS7jTlLx1tV9bVWAVUXZw4cPW59R7UUbKd7m/g7slhtjRYcAgg4BBB0CCDoEWOkyrnJcxdvIrrDu51ZF2Yhu8dadX3W/dssthxUdAgg6BBB0CCDoEGBlyrjjeuBC9/26Rgq16ujqyH/QVe/XvbdukTdiZLdcGis6BBB0CCDoEEDQIcDKlHGV7i6uuY+ajjy8YBk7xebWvY+q3BvZLTdSeqYdXbWiQwBBhwCCDgEEHQKsdBlXGdlN1S3yup87UiYd126vkf9zm/sYLX1WdAgg6BBA0CGAoEOAuDKu2rV29uzZI//caldYZeRYadd3f/vRZOzwtWDfMr6DuXc5rgorOgQQdAgg6BBA0CHASpdxIzvPRty7en4ytlU81bRr7l11t2//fDL26zs3J2Nz72Srnuxaqb6/Jy9nnUocKzoEEHQIIOgQQNAhwEqXcSfJq6cPJmM/ffaPyVhVilU7u7q7vapdZru7f2i9truTrSoGq8/90c07k7FfXfzKZGx7e7v1uZXqc7v3scqs6BBA0CGAoEMAQYcAK13Gjewem3tXXf1+X229tnqgwYiNjXdb13V3so1Yxu7FuXcWvo2s6BBA0CGAoEMAQYcAK13GVbukqqdjLvamT9GsdHejbT16Phm7V134zR9Phnb+Mj2PWe0Uq46aVjveunOuPrcqrKoi79atDydjm5ubk7HqPnZ2diZjT16efu08D6O7c29VnpxasaJDAEGHAIIOAQQdAqxMGVeWbGu9km1u1QMhPiuKt6qwqoqjS5cuzTOxI1LNr7qPuqAr3vDl09b7zV22rjIrOgQQdAgg6BBA0CHAypRxI+beLTdyBLLaKVaVWF3r672jsNV13fuovoNqF9zIfTDGig4BBB0CCDoEEHQIsNJl3Mixw7l3WFUPZkhTFXR//928u+C6VvlIasWKDgEEHQIIOgQQdAiwOFiLP8E3ZOQobLcQunrzw7fuR6rKx+r4blWyVdLKs7lZ0SGAoEMAQYcAgg4BlHFLUpV2x/U/dyOl2NyUbMthRYcAgg4BBB0CCDoEUMYdo6p4u3LlyuS67hNRq+Odjx8/PsTMljcXZdxyWNEhgKBDAEGHAIIOAVb6P+PeRt2ya8QyduQt4z7os6JDAEGHAIIOAQQdAtgZd4yWcSS1clzHY7tzYX5WdAgg6BBA0CGAoEMAZRwEsKJDAEGHAIIOAQQdAgg6BBB0CCDoEEDQIYCgQwBBhwCCDgEEHQIIOgQQdAjwH8cV9ZEMMgoVAAAAAElFTkSuQmCC;" vertex="1" parent="1">
          <mxGeometry x="620" y="800" width="40" height="40" as="geometry" />
        </mxCell>
        <mxCell id="N2usLRuaXVRc8HSE8ele-87" value="" style="endArrow=classicThin;html=1;rounded=0;endFill=1;entryX=0.687;entryY=-0.017;entryDx=0;entryDy=0;entryPerimeter=0;" edge="1" parent="1">
          <mxGeometry width="50" height="50" relative="1" as="geometry">
            <mxPoint x="362" y="723" as="sourcePoint" />
            <mxPoint x="362.3699999999999" y="749.98" as="targetPoint" />
          </mxGeometry>
        </mxCell>
        <mxCell id="N2usLRuaXVRc8HSE8ele-88" style="edgeStyle=orthogonalEdgeStyle;rounded=1;orthogonalLoop=1;jettySize=auto;html=1;exitX=0.5;exitY=1;exitDx=0;exitDy=0;entryX=0.891;entryY=-0.056;entryDx=0;entryDy=0;entryPerimeter=0;curved=0;endArrow=classicThin;endFill=1;" edge="1" parent="1">
          <mxGeometry relative="1" as="geometry">
            <mxPoint x="395" y="798" as="sourcePoint" />
            <mxPoint x="363" y="820" as="targetPoint" />
            <Array as="points">
              <mxPoint x="395" y="808" />
              <mxPoint x="363" y="808" />
            </Array>
          </mxGeometry>
        </mxCell>
        <mxCell id="N2usLRuaXVRc8HSE8ele-89" style="edgeStyle=orthogonalEdgeStyle;rounded=1;orthogonalLoop=1;jettySize=auto;html=1;exitX=0.5;exitY=1;exitDx=0;exitDy=0;entryX=0.119;entryY=-0.087;entryDx=0;entryDy=0;entryPerimeter=0;curved=0;endArrow=classicThin;endFill=1;" edge="1" parent="1">
          <mxGeometry relative="1" as="geometry">
            <mxPoint x="395" y="798" as="sourcePoint" />
            <mxPoint x="430" y="819" as="targetPoint" />
            <Array as="points">
              <mxPoint x="395" y="808" />
              <mxPoint x="430" y="808" />
            </Array>
          </mxGeometry>
        </mxCell>
        <mxCell id="N2usLRuaXVRc8HSE8ele-119" value="" style="rounded=1;whiteSpace=wrap;html=1;strokeColor=none;fillColor=#CCCCFF;arcSize=4;fontColor=#ffffff;opacity=50;" vertex="1" parent="1">
          <mxGeometry x="130" y="856" width="530" height="274" as="geometry" />
        </mxCell>
        <mxCell id="N2usLRuaXVRc8HSE8ele-120" value="&lt;div style=&quot;text-align: justify; padding-left: 5px; padding-right: 5px;&quot;&gt;&lt;div&gt;&lt;strong style=&quot;background-color: initial;&quot; data-end=&quot;80&quot; data-start=&quot;74&quot;&gt;&lt;br&gt;&lt;/strong&gt;&lt;/div&gt;&lt;div&gt;&lt;strong style=&quot;background-color: initial;&quot; data-end=&quot;80&quot; data-start=&quot;74&quot;&gt;Q:&lt;/strong&gt;&lt;span style=&quot;background-color: initial;&quot;&gt;&amp;nbsp;Based on the token holding plot, did the wallet have long token holding period?&lt;/span&gt;&lt;/div&gt;&lt;div&gt;&lt;div&gt;&lt;span style=&quot;background-color: initial; color: rgb(0, 0, 255);&quot;&gt;{&lt;/span&gt;&lt;i style=&quot;background-color: initial; color: rgb(0, 0, 255);&quot;&gt;token holding plot&lt;/i&gt;&lt;span style=&quot;background-color: initial; color: rgb(0, 0, 255);&quot;&gt;}&lt;/span&gt;&lt;/div&gt;&lt;/div&gt;&lt;div&gt;&lt;span style=&quot;background-color: initial; color: rgb(0, 0, 255);&quot;&gt;&lt;br&gt;&lt;/span&gt;&lt;/div&gt;&lt;/div&gt;" style="rounded=1;whiteSpace=wrap;html=1;strokeColor=none;fillColor=#CCCCFF;align=left;" vertex="1" parent="1">
          <mxGeometry x="140" y="873" width="510" height="47" as="geometry" />
        </mxCell>
        <mxCell id="N2usLRuaXVRc8HSE8ele-121" value="" style="shape=image;verticalLabelPosition=bottom;labelBackgroundColor=default;verticalAlign=top;aspect=fixed;imageAspect=0;image=https://openclipart.org/image/800px/247320;" vertex="1" parent="1">
          <mxGeometry x="137" y="858" width="26" height="26" as="geometry" />
        </mxCell>
        <mxCell id="N2usLRuaXVRc8HSE8ele-122" value="&lt;blockquote style=&quot;margin: 0 0 0 40px; border: none; padding: 0px;&quot;&gt;&lt;div style=&quot;text-align: justify; padding-left: 5px; padding-right: 5px;&quot;&gt;&lt;div&gt;&lt;strong style=&quot;background-color: initial;&quot; data-end=&quot;80&quot; data-start=&quot;74&quot;&gt;&lt;span style=&quot;white-space: pre;&quot;&gt;&#x9;&lt;/span&gt;A:&lt;/strong&gt;&lt;span style=&quot;background-color: initial;&quot;&gt;&amp;nbsp;Yes, [Explanations]&lt;/span&gt;&lt;/div&gt;&lt;/div&gt;&lt;/blockquote&gt;" style="rounded=1;whiteSpace=wrap;html=1;strokeColor=none;fillColor=#CCCCFF;align=left;" vertex="1" parent="1">
          <mxGeometry x="140" y="943" width="250" height="20" as="geometry" />
        </mxCell>
        <mxCell id="N2usLRuaXVRc8HSE8ele-123" value="&lt;b&gt;Prompt 7: Duration&lt;/b&gt;" style="text;html=1;align=center;verticalAlign=middle;whiteSpace=wrap;rounded=0;" vertex="1" parent="1">
          <mxGeometry x="156.5" y="863" width="123.5" height="10" as="geometry" />
        </mxCell>
        <mxCell id="N2usLRuaXVRc8HSE8ele-124" value="&lt;b&gt;Reply 7: Duration&lt;/b&gt;" style="text;html=1;align=center;verticalAlign=middle;whiteSpace=wrap;rounded=0;" vertex="1" parent="1">
          <mxGeometry x="156.5" y="933" width="113.5" height="10" as="geometry" />
        </mxCell>
        <mxCell id="N2usLRuaXVRc8HSE8ele-125" value="" style="rounded=1;whiteSpace=wrap;html=1;dashed=1;strokeWidth=2;fillColor=none;" vertex="1" parent="1">
          <mxGeometry x="140" y="944" width="250" height="18" as="geometry" />
        </mxCell>
        <mxCell id="N2usLRuaXVRc8HSE8ele-126" value="&lt;blockquote style=&quot;margin: 0 0 0 40px; border: none; padding: 0px;&quot;&gt;&lt;div style=&quot;text-align: justify; padding-left: 5px; padding-right: 5px;&quot;&gt;&lt;div&gt;&lt;strong style=&quot;background-color: initial;&quot; data-end=&quot;80&quot; data-start=&quot;74&quot;&gt;&lt;span style=&quot;white-space: pre;&quot;&gt;&#x9;&lt;/span&gt;A:&lt;/strong&gt;&lt;span style=&quot;background-color: initial;&quot;&gt;&amp;nbsp;No&lt;/span&gt;&lt;span style=&quot;color: rgba(0, 0, 0, 0); font-family: monospace; font-size: 0px; text-align: start; text-wrap: nowrap; background-color: initial;&quot;&gt;%3CmxGraphModel%3E%3Croot%3E%3CmxCell%20id%3D%220%22%2F%3E%3CmxCell%20id%3D%221%22%20parent%3D%220%22%2F%3E%3CmxCell%20id%3D%222%22%20value%3D%22%22%20style%3D%22rounded%3D1%3BwhiteSpace%3Dwrap%3Bhtml%3D1%3Bdashed%3D1%3BstrokeWidth%3D2%3BfillColor%3Dnone%3B%22%20vertex%3D%221%22%20parent%3D%221%22%3E%3CmxGeometry%20x%3D%22390%22%20y%3D%22211%22%20width%3D%22250%22%20height%3D%2218%22%20as%3D%22geometry%22%2F%3E%3C%2FmxCell%3E%3C%2Froot%3E%3C%2FmxGraphModel%3E&lt;/span&gt;&lt;span style=&quot;background-color: initial;&quot;&gt;, [Explanations]&lt;/span&gt;&lt;/div&gt;&lt;/div&gt;&lt;/blockquote&gt;" style="rounded=1;whiteSpace=wrap;html=1;strokeColor=none;fillColor=#CCCCFF;align=left;" vertex="1" parent="1">
          <mxGeometry x="400" y="943" width="250" height="20" as="geometry" />
        </mxCell>
        <mxCell id="N2usLRuaXVRc8HSE8ele-127" value="&lt;b&gt;Reply 7: Duration&lt;/b&gt;" style="text;html=1;align=center;verticalAlign=middle;whiteSpace=wrap;rounded=0;" vertex="1" parent="1">
          <mxGeometry x="520" y="933" width="117" height="10" as="geometry" />
        </mxCell>
        <mxCell id="N2usLRuaXVRc8HSE8ele-128" value="" style="rounded=1;whiteSpace=wrap;html=1;dashed=1;strokeWidth=2;fillColor=none;" vertex="1" parent="1">
          <mxGeometry x="400" y="944" width="250" height="18" as="geometry" />
        </mxCell>
        <mxCell id="N2usLRuaXVRc8HSE8ele-129" value="" style="shape=image;verticalLabelPosition=bottom;labelBackgroundColor=default;verticalAlign=top;aspect=fixed;imageAspect=0;image=data:image/png,iVBORw0KGgoAAAANSUhEUgAAAPoAAAD6CAYAAACI7Fo9AAAACXBIWXMAAA7EAAAOxAGVKw4bAAAJA0lEQVR4nO3dMYhdWR0G8HmiCBsrA1oIgxBIEJuNTRSmjOkCIsQIVsaBhSzsFAGDTYo0koUsJJCFhdlYx4BNukkKi9lSo4VIRmyms4iVWVCLsRXvP/LPnDtvJu/7/crDfe+d+x4fBz7OeXdxsHawBqy2Lxz3BICjJ+gQQNAhgKBDAEGHAIIOAQQdAgg6BBB0CCDoEEDQIYCgQwBBhwCCDgEEHQIIOgQQdAgg6BBA0CGAoEMAQYcAgg4BBB0CCDoEEHQIIOgQQNAhgKBDAEGHAF887glwOIu1xYl5DO7B2sHiuOfA/2dFhwCCDgEEHQIIOgRQxh2jkULt7Nmzk7H19fXWWNf+/n5rbLF3+PtQ5C2HFR0CCDoEEHQIIOgQYHGwdmI2WK20qnjrFmqVkZJtGbpF3t7e3mRMQTc/KzoEEHQIIOgQQNAhgJ1xR2CkeDvpJVvXyH1UO+0UdGOs6BBA0CGAoEMAQYcAyrhBcxdv1Vi1o6yyjNdWY8vYzaegG2NFhwCCDgEEHQIIOgRQxh2BuYu3kQKsa+Qzuq8dmXN1nJU+KzoEEHQIIOgQQNAhgDLuDcy9C667a61bdo1cN2IZ86u+Z7vl+qzoEEDQIYCgQwBBhwDKuBNmd3d3MtbdFbaxsTEZm7ugm3t+lWUUiGms6BBA0CGAoEMAQYcAyrglqcqkbrF18OLJZGxx7nLrtdWOsqoUm7sAm7ugY4wVHQIIOgQQdAgg6BBAGXcEuv/7VhVW966en4zdv3Wrdd3m5uZk7NT333/tPP9bVYp1y8JqLpWtR88PPRfGWNEhgKBDAEGHAIIOARYHa5O/3eI1uv8Zd5IeNvDq6YPJWFXQnfT76M7Pf8bVrOgQQNAhgKBDAEGHAHbGDXr//KnJ2FbRYR0cHE/puVj0uqmy2DpBc+5+z9Ss6BBA0CGAoEMAQYcAyrg3UB3HvHTp0vTC4jjmv/Y+m4z94pPfTMauX78+Gfv4448nY3fv3p2M3bhxYzqXAdX7dT+3ex+/fO+HrblU3/O96sJHrbeLY0WHAIIOAQQdAgg6BFDGDaoefND1g3e/MRk7c+bMZOx7P/naZGykeOseXa1Un1vNr7qP6n67Rr5nrOgQQdAhgKBDAEGHAMq4I1DtoPvyuelDCf75YvqAhK6qAPv6n740Gfvo0J9Ql2d/+/a/D/1+Fy5cmIxV30v3gRD0WdEhgKBDAEGHAIIOATzAYdD9q99pfYHVMctv/ezO7PP5Xwcvnhz6tYtzl2ecSe3Pn96cjO3s7LRe+8Gj33tYQ5MVHQIIOgQQdAgg6BBAGTeoesJq97/lqqOX71THMaux/f3mDJegOb/Pi7H9Yqwq47aK/+Hz5NQ+KzoEEHQIIOgQQNAhgGOqR+CPp4pjlkXBVBZ0xfu9MzCX+7duHfq1H9y+3bru893ecdtu8VZ+f2vTMo4+KzoEEHQIIOgQQNAhgJ1xb6DaBXfx4sXJddWOt6qIunz6ZetzNzc3W9eVu+pmVu1uq2xvb7eue/Ly9GSs+/09e/ZsMma3XM2KDgEEHQIIOgQQdAhgZ9ygkad8Pnj+qndhs9jqHoXt6u5kq1QlW/V+6+vd6zxNdYQVHQIIOgQQdAgg6BBAGfca3V1wlapM6hZM1XXt0m6tV5SN6M6lKtm699st3qrfY/Fs+rvZLWdFhwiCDgEEHQIIOgRQxq2NHT+d297e3qFfu3XjrzPO5DUenWldVt3HyJHeSvVaBV3Nig4BBB0CCDoEEHQIEFfGzV28jeyCq/7zrJpL9X4bGxuTsYfv9YqytU+K0q752mvXrk3GdosHOIzc7wjHWWtWdAgg6BBA0CGAoEOAlS7jTlLx1tV9bVWAVUXZw4cPW59R7UUbKd7m/g7slhtjRYcAgg4BBB0CCDoEWOkyrnJcxdvIrrDu51ZF2Yhu8dadX3W/dssthxUdAgg6BBB0CCDoEGBlyrjjeuBC9/26Rgq16ujqyH/QVe/XvbdukTdiZLdcGis6BBB0CCDoEEDQIcDKlHGV7i6uuY+ajjy8YBk7xebWvY+q3BvZLTdSeqYdXbWiQwBBhwCCDgEEHQKsdBlXGdlN1S3yup87UiYd126vkf9zm/sYLX1WdAgg6BBA0CGAoEOAuDKu2rV29uzZI//caldYZeRYadd3f/vRZOzwtWDfMr6DuXc5rgorOgQQdAgg6BBA0CHASpdxIzvPRty7en4ytlU81bRr7l11t2//fDL26zs3J2Nz72Srnuxaqb6/Jy9nnUocKzoEEHQIIOgQQNAhwEqXcSfJq6cPJmM/ffaPyVhVilU7u7q7vapdZru7f2i9truTrSoGq8/90c07k7FfXfzKZGx7e7v1uZXqc7v3scqs6BBA0CGAoEMAQYcAK13Gjewem3tXXf1+X229tnqgwYiNjXdb13V3so1Yxu7FuXcWvo2s6BBA0CGAoEMAQYcAK13GVbukqqdjLvamT9GsdHejbT16Phm7V134zR9Phnb+Mj2PWe0Uq46aVjveunOuPrcqrKoi79atDydjm5ubk7HqPnZ2diZjT16efu08D6O7c29VnpxasaJDAEGHAIIOAQQdAqxMGVeWbGu9km1u1QMhPiuKt6qwqoqjS5cuzTOxI1LNr7qPuqAr3vDl09b7zV22rjIrOgQQdAgg6BBA0CHAypRxI+beLTdyBLLaKVaVWF3r672jsNV13fuovoNqF9zIfTDGig4BBB0CCDoEEHQIsNJl3Mixw7l3WFUPZkhTFXR//928u+C6VvlIasWKDgEEHQIIOgQQdAiwOFiLP8E3ZOQobLcQunrzw7fuR6rKx+r4blWyVdLKs7lZ0SGAoEMAQYcAgg4BlHFLUpV2x/U/dyOl2NyUbMthRYcAgg4BBB0CCDoEUMYdo6p4u3LlyuS67hNRq+Odjx8/PsTMljcXZdxyWNEhgKBDAEGHAIIOAVb6P+PeRt2ya8QyduQt4z7os6JDAEGHAIIOAQQdAtgZd4yWcSS1clzHY7tzYX5WdAgg6BBA0CGAoEMAZRwEsKJDAEGHAIIOAQQdAgg6BBB0CCDoEEDQIYCgQwBBhwCCDgEEHQIIOgQQdAjwH8cV9ZEMMgoVAAAAAElFTkSuQmCC;" vertex="1" parent="1">
          <mxGeometry x="130" y="915" width="40" height="40" as="geometry" />
        </mxCell>
        <mxCell id="N2usLRuaXVRc8HSE8ele-130" value="" style="shape=image;verticalLabelPosition=bottom;labelBackgroundColor=default;verticalAlign=top;aspect=fixed;imageAspect=0;image=data:image/png,iVBORw0KGgoAAAANSUhEUgAAAPoAAAD6CAYAAACI7Fo9AAAACXBIWXMAAA7EAAAOxAGVKw4bAAAJA0lEQVR4nO3dMYhdWR0G8HmiCBsrA1oIgxBIEJuNTRSmjOkCIsQIVsaBhSzsFAGDTYo0koUsJJCFhdlYx4BNukkKi9lSo4VIRmyms4iVWVCLsRXvP/LPnDtvJu/7/crDfe+d+x4fBz7OeXdxsHawBqy2Lxz3BICjJ+gQQNAhgKBDAEGHAIIOAQQdAgg6BBB0CCDoEEDQIYCgQwBBhwCCDgEEHQIIOgQQdAgg6BBA0CGAoEMAQYcAgg4BBB0CCDoEEHQIIOgQQNAhgKBDAEGHAF887glwOIu1xYl5DO7B2sHiuOfA/2dFhwCCDgEEHQIIOgRQxh2jkULt7Nmzk7H19fXWWNf+/n5rbLF3+PtQ5C2HFR0CCDoEEHQIIOgQYHGwdmI2WK20qnjrFmqVkZJtGbpF3t7e3mRMQTc/KzoEEHQIIOgQQNAhgJ1xR2CkeDvpJVvXyH1UO+0UdGOs6BBA0CGAoEMAQYcAyrhBcxdv1Vi1o6yyjNdWY8vYzaegG2NFhwCCDgEEHQIIOgRQxh2BuYu3kQKsa+Qzuq8dmXN1nJU+KzoEEHQIIOgQQNAhgDLuDcy9C667a61bdo1cN2IZ86u+Z7vl+qzoEEDQIYCgQwBBhwDKuBNmd3d3MtbdFbaxsTEZm7ugm3t+lWUUiGms6BBA0CGAoEMAQYcAyrglqcqkbrF18OLJZGxx7nLrtdWOsqoUm7sAm7ugY4wVHQIIOgQQdAgg6BBAGXcEuv/7VhVW966en4zdv3Wrdd3m5uZk7NT333/tPP9bVYp1y8JqLpWtR88PPRfGWNEhgKBDAEGHAIIOARYHa5O/3eI1uv8Zd5IeNvDq6YPJWFXQnfT76M7Pf8bVrOgQQNAhgKBDAEGHAHbGDXr//KnJ2FbRYR0cHE/puVj0uqmy2DpBc+5+z9Ss6BBA0CGAoEMAQYcAyrg3UB3HvHTp0vTC4jjmv/Y+m4z94pPfTMauX78+Gfv4448nY3fv3p2M3bhxYzqXAdX7dT+3ex+/fO+HrblU3/O96sJHrbeLY0WHAIIOAQQdAgg6BFDGDaoefND1g3e/MRk7c+bMZOx7P/naZGykeOseXa1Un1vNr7qP6n67Rr5nrOgQQdAhgKBDAEGHAMq4I1DtoPvyuelDCf75YvqAhK6qAPv6n740Gfvo0J9Ql2d/+/a/D/1+Fy5cmIxV30v3gRD0WdEhgKBDAEGHAIIOATzAYdD9q99pfYHVMctv/ezO7PP5Xwcvnhz6tYtzl2ecSe3Pn96cjO3s7LRe+8Gj33tYQ5MVHQIIOgQQdAgg6BBAGTeoesJq97/lqqOX71THMaux/f3mDJegOb/Pi7H9Yqwq47aK/+Hz5NQ+KzoEEHQIIOgQQNAhgGOqR+CPp4pjlkXBVBZ0xfu9MzCX+7duHfq1H9y+3bru893ecdtu8VZ+f2vTMo4+KzoEEHQIIOgQQNAhgJ1xb6DaBXfx4sXJddWOt6qIunz6ZetzNzc3W9eVu+pmVu1uq2xvb7eue/Ly9GSs+/09e/ZsMma3XM2KDgEEHQIIOgQQdAhgZ9ygkad8Pnj+qndhs9jqHoXt6u5kq1QlW/V+6+vd6zxNdYQVHQIIOgQQdAgg6BBAGfca3V1wlapM6hZM1XXt0m6tV5SN6M6lKtm699st3qrfY/Fs+rvZLWdFhwiCDgEEHQIIOgRQxq2NHT+d297e3qFfu3XjrzPO5DUenWldVt3HyJHeSvVaBV3Nig4BBB0CCDoEEHQIEFfGzV28jeyCq/7zrJpL9X4bGxuTsYfv9YqytU+K0q752mvXrk3GdosHOIzc7wjHWWtWdAgg6BBA0CGAoEOAlS7jTlLx1tV9bVWAVUXZw4cPW59R7UUbKd7m/g7slhtjRYcAgg4BBB0CCDoEWOkyrnJcxdvIrrDu51ZF2Yhu8dadX3W/dssthxUdAgg6BBB0CCDoEGBlyrjjeuBC9/26Rgq16ujqyH/QVe/XvbdukTdiZLdcGis6BBB0CCDoEEDQIcDKlHGV7i6uuY+ajjy8YBk7xebWvY+q3BvZLTdSeqYdXbWiQwBBhwCCDgEEHQKsdBlXGdlN1S3yup87UiYd126vkf9zm/sYLX1WdAgg6BBA0CGAoEOAuDKu2rV29uzZI//caldYZeRYadd3f/vRZOzwtWDfMr6DuXc5rgorOgQQdAgg6BBA0CHASpdxIzvPRty7en4ytlU81bRr7l11t2//fDL26zs3J2Nz72Srnuxaqb6/Jy9nnUocKzoEEHQIIOgQQNAhwEqXcSfJq6cPJmM/ffaPyVhVilU7u7q7vapdZru7f2i9truTrSoGq8/90c07k7FfXfzKZGx7e7v1uZXqc7v3scqs6BBA0CGAoEMAQYcAK13Gjewem3tXXf1+X229tnqgwYiNjXdb13V3so1Yxu7FuXcWvo2s6BBA0CGAoEMAQYcAK13GVbukqqdjLvamT9GsdHejbT16Phm7V134zR9Phnb+Mj2PWe0Uq46aVjveunOuPrcqrKoi79atDydjm5ubk7HqPnZ2diZjT16efu08D6O7c29VnpxasaJDAEGHAIIOAQQdAqxMGVeWbGu9km1u1QMhPiuKt6qwqoqjS5cuzTOxI1LNr7qPuqAr3vDl09b7zV22rjIrOgQQdAgg6BBA0CHAypRxI+beLTdyBLLaKVaVWF3r672jsNV13fuovoNqF9zIfTDGig4BBB0CCDoEEHQIsNJl3Mixw7l3WFUPZkhTFXR//928u+C6VvlIasWKDgEEHQIIOgQQdAiwOFiLP8E3ZOQobLcQunrzw7fuR6rKx+r4blWyVdLKs7lZ0SGAoEMAQYcAgg4BlHFLUpV2x/U/dyOl2NyUbMthRYcAgg4BBB0CCDoEUMYdo6p4u3LlyuS67hNRq+Odjx8/PsTMljcXZdxyWNEhgKBDAEGHAIIOAVb6P+PeRt2ya8QyduQt4z7os6JDAEGHAIIOAQQdAtgZd4yWcSS1clzHY7tzYX5WdAgg6BBA0CGAoEMAZRwEsKJDAEGHAIIOAQQdAgg6BBB0CCDoEEDQIYCgQwBBhwCCDgEEHQIIOgQQdAjwH8cV9ZEMMgoVAAAAAElFTkSuQmCC;" vertex="1" parent="1">
          <mxGeometry x="620" y="915" width="40" height="40" as="geometry" />
        </mxCell>
        <mxCell id="N2usLRuaXVRc8HSE8ele-131" value="" style="endArrow=classicThin;html=1;rounded=0;endFill=1;entryX=0.687;entryY=-0.017;entryDx=0;entryDy=0;entryPerimeter=0;exitX=0.122;exitY=0.99;exitDx=0;exitDy=0;exitPerimeter=0;" edge="1" parent="1">
          <mxGeometry width="50" height="50" relative="1" as="geometry">
            <mxPoint x="362.5" y="839.8" as="sourcePoint" />
            <mxPoint x="363.3699999999999" y="871.98" as="targetPoint" />
          </mxGeometry>
        </mxCell>
        <mxCell id="N2usLRuaXVRc8HSE8ele-132" style="edgeStyle=orthogonalEdgeStyle;rounded=1;orthogonalLoop=1;jettySize=auto;html=1;exitX=0.5;exitY=1;exitDx=0;exitDy=0;entryX=0.891;entryY=-0.056;entryDx=0;entryDy=0;entryPerimeter=0;curved=0;endArrow=classicThin;endFill=1;" edge="1" parent="1">
          <mxGeometry relative="1" as="geometry">
            <mxPoint x="395" y="921" as="sourcePoint" />
            <mxPoint x="363" y="943" as="targetPoint" />
            <Array as="points">
              <mxPoint x="395" y="931" />
              <mxPoint x="363" y="931" />
            </Array>
          </mxGeometry>
        </mxCell>
        <mxCell id="N2usLRuaXVRc8HSE8ele-133" style="edgeStyle=orthogonalEdgeStyle;rounded=1;orthogonalLoop=1;jettySize=auto;html=1;exitX=0.5;exitY=1;exitDx=0;exitDy=0;entryX=0.119;entryY=-0.087;entryDx=0;entryDy=0;entryPerimeter=0;curved=0;endArrow=classicThin;endFill=1;" edge="1" parent="1">
          <mxGeometry relative="1" as="geometry">
            <mxPoint x="395" y="921" as="sourcePoint" />
            <mxPoint x="430" y="942" as="targetPoint" />
            <Array as="points">
              <mxPoint x="395" y="931" />
              <mxPoint x="430" y="931" />
            </Array>
          </mxGeometry>
        </mxCell>
        <mxCell id="N2usLRuaXVRc8HSE8ele-134" value="&lt;div style=&quot;text-align: justify; padding-left: 5px; padding-right: 5px;&quot;&gt;&lt;div&gt;&lt;div&gt;&lt;div&gt;&lt;strong style=&quot;background-color: initial;&quot; data-end=&quot;80&quot; data-start=&quot;74&quot;&gt;Q:&lt;/strong&gt;&lt;span style=&quot;background-color: initial;&quot;&gt;&amp;nbsp;Based on the token holding plot, did the wallet have high cost?&lt;/span&gt;&lt;/div&gt;&lt;div&gt;&lt;span style=&quot;background-color: initial; color: rgb(0, 0, 255);&quot;&gt;{&lt;/span&gt;&lt;i style=&quot;background-color: initial; color: rgb(0, 0, 255);&quot;&gt;token holding plot&lt;/i&gt;&lt;span style=&quot;background-color: initial; color: rgb(0, 0, 255);&quot;&gt;}&lt;/span&gt;&lt;/div&gt;&lt;/div&gt;&lt;/div&gt;&lt;/div&gt;" style="rounded=1;whiteSpace=wrap;html=1;strokeColor=none;fillColor=#CCCCFF;align=left;" vertex="1" parent="1">
          <mxGeometry x="140" y="991" width="510" height="47" as="geometry" />
        </mxCell>
        <mxCell id="N2usLRuaXVRc8HSE8ele-135" value="" style="shape=image;verticalLabelPosition=bottom;labelBackgroundColor=default;verticalAlign=top;aspect=fixed;imageAspect=0;image=https://openclipart.org/image/800px/247320;" vertex="1" parent="1">
          <mxGeometry x="137" y="976" width="26" height="26" as="geometry" />
        </mxCell>
        <mxCell id="N2usLRuaXVRc8HSE8ele-136" value="&lt;blockquote style=&quot;margin: 0 0 0 40px; border: none; padding: 0px;&quot;&gt;&lt;div style=&quot;text-align: justify; padding-left: 5px; padding-right: 5px;&quot;&gt;&lt;div&gt;&lt;strong style=&quot;background-color: initial;&quot; data-end=&quot;80&quot; data-start=&quot;74&quot;&gt;&lt;span style=&quot;white-space: pre;&quot;&gt;&#x9;&lt;/span&gt;A:&lt;/strong&gt;&lt;span style=&quot;background-color: initial;&quot;&gt;&amp;nbsp;Yes, [Explanations]&lt;/span&gt;&lt;/div&gt;&lt;/div&gt;&lt;/blockquote&gt;" style="rounded=1;whiteSpace=wrap;html=1;strokeColor=none;fillColor=#CCCCFF;align=left;" vertex="1" parent="1">
          <mxGeometry x="140" y="1060" width="250" height="20" as="geometry" />
        </mxCell>
        <mxCell id="N2usLRuaXVRc8HSE8ele-137" value="&lt;b&gt;Prompt 8: Cost&lt;/b&gt;" style="text;html=1;align=center;verticalAlign=middle;whiteSpace=wrap;rounded=0;" vertex="1" parent="1">
          <mxGeometry x="156.5" y="981" width="103.5" height="10" as="geometry" />
        </mxCell>
        <mxCell id="N2usLRuaXVRc8HSE8ele-138" value="&lt;b&gt;Reply 8: Cost&lt;/b&gt;" style="text;html=1;align=center;verticalAlign=middle;whiteSpace=wrap;rounded=0;" vertex="1" parent="1">
          <mxGeometry x="156.5" y="1050" width="83.5" height="10" as="geometry" />
        </mxCell>
        <mxCell id="N2usLRuaXVRc8HSE8ele-139" value="" style="rounded=1;whiteSpace=wrap;html=1;dashed=1;strokeWidth=2;fillColor=none;" vertex="1" parent="1">
          <mxGeometry x="140" y="1061" width="250" height="18" as="geometry" />
        </mxCell>
        <mxCell id="N2usLRuaXVRc8HSE8ele-140" value="&lt;blockquote style=&quot;margin: 0 0 0 40px; border: none; padding: 0px;&quot;&gt;&lt;div style=&quot;text-align: justify; padding-left: 5px; padding-right: 5px;&quot;&gt;&lt;div&gt;&lt;strong style=&quot;background-color: initial;&quot; data-end=&quot;80&quot; data-start=&quot;74&quot;&gt;&lt;span style=&quot;white-space: pre;&quot;&gt;&#x9;&lt;/span&gt;A:&lt;/strong&gt;&lt;span style=&quot;background-color: initial;&quot;&gt;&amp;nbsp;No&lt;/span&gt;&lt;span style=&quot;color: rgba(0, 0, 0, 0); font-family: monospace; font-size: 0px; text-align: start; text-wrap: nowrap; background-color: initial;&quot;&gt;%3CmxGraphModel%3E%3Croot%3E%3CmxCell%20id%3D%220%22%2F%3E%3CmxCell%20id%3D%221%22%20parent%3D%220%22%2F%3E%3CmxCell%20id%3D%222%22%20value%3D%22%22%20style%3D%22rounded%3D1%3BwhiteSpace%3Dwrap%3Bhtml%3D1%3Bdashed%3D1%3BstrokeWidth%3D2%3BfillColor%3Dnone%3B%22%20vertex%3D%221%22%20parent%3D%221%22%3E%3CmxGeometry%20x%3D%22390%22%20y%3D%22211%22%20width%3D%22250%22%20height%3D%2218%22%20as%3D%22geometry%22%2F%3E%3C%2FmxCell%3E%3C%2Froot%3E%3C%2FmxGraphModel%3E&lt;/span&gt;&lt;span style=&quot;background-color: initial;&quot;&gt;, [Explanations]&lt;/span&gt;&lt;/div&gt;&lt;/div&gt;&lt;/blockquote&gt;" style="rounded=1;whiteSpace=wrap;html=1;strokeColor=none;fillColor=#CCCCFF;align=left;" vertex="1" parent="1">
          <mxGeometry x="400" y="1060" width="250" height="20" as="geometry" />
        </mxCell>
        <mxCell id="N2usLRuaXVRc8HSE8ele-141" value="&lt;b&gt;Reply 8: Cost&lt;/b&gt;" style="text;html=1;align=center;verticalAlign=middle;whiteSpace=wrap;rounded=0;" vertex="1" parent="1">
          <mxGeometry x="540" y="1050" width="97" height="10" as="geometry" />
        </mxCell>
        <mxCell id="N2usLRuaXVRc8HSE8ele-142" value="" style="rounded=1;whiteSpace=wrap;html=1;dashed=1;strokeWidth=2;fillColor=none;" vertex="1" parent="1">
          <mxGeometry x="400" y="1061" width="250" height="18" as="geometry" />
        </mxCell>
        <mxCell id="N2usLRuaXVRc8HSE8ele-143" value="" style="shape=image;verticalLabelPosition=bottom;labelBackgroundColor=default;verticalAlign=top;aspect=fixed;imageAspect=0;image=data:image/png,iVBORw0KGgoAAAANSUhEUgAAAPoAAAD6CAYAAACI7Fo9AAAACXBIWXMAAA7EAAAOxAGVKw4bAAAJA0lEQVR4nO3dMYhdWR0G8HmiCBsrA1oIgxBIEJuNTRSmjOkCIsQIVsaBhSzsFAGDTYo0koUsJJCFhdlYx4BNukkKi9lSo4VIRmyms4iVWVCLsRXvP/LPnDtvJu/7/crDfe+d+x4fBz7OeXdxsHawBqy2Lxz3BICjJ+gQQNAhgKBDAEGHAIIOAQQdAgg6BBB0CCDoEEDQIYCgQwBBhwCCDgEEHQIIOgQQdAgg6BBA0CGAoEMAQYcAgg4BBB0CCDoEEHQIIOgQQNAhgKBDAEGHAF887glwOIu1xYl5DO7B2sHiuOfA/2dFhwCCDgEEHQIIOgRQxh2jkULt7Nmzk7H19fXWWNf+/n5rbLF3+PtQ5C2HFR0CCDoEEHQIIOgQYHGwdmI2WK20qnjrFmqVkZJtGbpF3t7e3mRMQTc/KzoEEHQIIOgQQNAhgJ1xR2CkeDvpJVvXyH1UO+0UdGOs6BBA0CGAoEMAQYcAyrhBcxdv1Vi1o6yyjNdWY8vYzaegG2NFhwCCDgEEHQIIOgRQxh2BuYu3kQKsa+Qzuq8dmXN1nJU+KzoEEHQIIOgQQNAhgDLuDcy9C667a61bdo1cN2IZ86u+Z7vl+qzoEEDQIYCgQwBBhwDKuBNmd3d3MtbdFbaxsTEZm7ugm3t+lWUUiGms6BBA0CGAoEMAQYcAyrglqcqkbrF18OLJZGxx7nLrtdWOsqoUm7sAm7ugY4wVHQIIOgQQdAgg6BBAGXcEuv/7VhVW966en4zdv3Wrdd3m5uZk7NT333/tPP9bVYp1y8JqLpWtR88PPRfGWNEhgKBDAEGHAIIOARYHa5O/3eI1uv8Zd5IeNvDq6YPJWFXQnfT76M7Pf8bVrOgQQNAhgKBDAEGHAHbGDXr//KnJ2FbRYR0cHE/puVj0uqmy2DpBc+5+z9Ss6BBA0CGAoEMAQYcAyrg3UB3HvHTp0vTC4jjmv/Y+m4z94pPfTMauX78+Gfv4448nY3fv3p2M3bhxYzqXAdX7dT+3ex+/fO+HrblU3/O96sJHrbeLY0WHAIIOAQQdAgg6BFDGDaoefND1g3e/MRk7c+bMZOx7P/naZGykeOseXa1Un1vNr7qP6n67Rr5nrOgQQdAhgKBDAEGHAMq4I1DtoPvyuelDCf75YvqAhK6qAPv6n740Gfvo0J9Ql2d/+/a/D/1+Fy5cmIxV30v3gRD0WdEhgKBDAEGHAIIOATzAYdD9q99pfYHVMctv/ezO7PP5Xwcvnhz6tYtzl2ecSe3Pn96cjO3s7LRe+8Gj33tYQ5MVHQIIOgQQdAgg6BBAGTeoesJq97/lqqOX71THMaux/f3mDJegOb/Pi7H9Yqwq47aK/+Hz5NQ+KzoEEHQIIOgQQNAhgGOqR+CPp4pjlkXBVBZ0xfu9MzCX+7duHfq1H9y+3bru893ecdtu8VZ+f2vTMo4+KzoEEHQIIOgQQNAhgJ1xb6DaBXfx4sXJddWOt6qIunz6ZetzNzc3W9eVu+pmVu1uq2xvb7eue/Ly9GSs+/09e/ZsMma3XM2KDgEEHQIIOgQQdAhgZ9ygkad8Pnj+qndhs9jqHoXt6u5kq1QlW/V+6+vd6zxNdYQVHQIIOgQQdAgg6BBAGfca3V1wlapM6hZM1XXt0m6tV5SN6M6lKtm699st3qrfY/Fs+rvZLWdFhwiCDgEEHQIIOgRQxq2NHT+d297e3qFfu3XjrzPO5DUenWldVt3HyJHeSvVaBV3Nig4BBB0CCDoEEHQIEFfGzV28jeyCq/7zrJpL9X4bGxuTsYfv9YqytU+K0q752mvXrk3GdosHOIzc7wjHWWtWdAgg6BBA0CGAoEOAlS7jTlLx1tV9bVWAVUXZw4cPW59R7UUbKd7m/g7slhtjRYcAgg4BBB0CCDoEWOkyrnJcxdvIrrDu51ZF2Yhu8dadX3W/dssthxUdAgg6BBB0CCDoEGBlyrjjeuBC9/26Rgq16ujqyH/QVe/XvbdukTdiZLdcGis6BBB0CCDoEEDQIcDKlHGV7i6uuY+ajjy8YBk7xebWvY+q3BvZLTdSeqYdXbWiQwBBhwCCDgEEHQKsdBlXGdlN1S3yup87UiYd126vkf9zm/sYLX1WdAgg6BBA0CGAoEOAuDKu2rV29uzZI//caldYZeRYadd3f/vRZOzwtWDfMr6DuXc5rgorOgQQdAgg6BBA0CHASpdxIzvPRty7en4ytlU81bRr7l11t2//fDL26zs3J2Nz72Srnuxaqb6/Jy9nnUocKzoEEHQIIOgQQNAhwEqXcSfJq6cPJmM/ffaPyVhVilU7u7q7vapdZru7f2i9truTrSoGq8/90c07k7FfXfzKZGx7e7v1uZXqc7v3scqs6BBA0CGAoEMAQYcAK13Gjewem3tXXf1+X229tnqgwYiNjXdb13V3so1Yxu7FuXcWvo2s6BBA0CGAoEMAQYcAK13GVbukqqdjLvamT9GsdHejbT16Phm7V134zR9Phnb+Mj2PWe0Uq46aVjveunOuPrcqrKoi79atDydjm5ubk7HqPnZ2diZjT16efu08D6O7c29VnpxasaJDAEGHAIIOAQQdAqxMGVeWbGu9km1u1QMhPiuKt6qwqoqjS5cuzTOxI1LNr7qPuqAr3vDl09b7zV22rjIrOgQQdAgg6BBA0CHAypRxI+beLTdyBLLaKVaVWF3r672jsNV13fuovoNqF9zIfTDGig4BBB0CCDoEEHQIsNJl3Mixw7l3WFUPZkhTFXR//928u+C6VvlIasWKDgEEHQIIOgQQdAiwOFiLP8E3ZOQobLcQunrzw7fuR6rKx+r4blWyVdLKs7lZ0SGAoEMAQYcAgg4BlHFLUpV2x/U/dyOl2NyUbMthRYcAgg4BBB0CCDoEUMYdo6p4u3LlyuS67hNRq+Odjx8/PsTMljcXZdxyWNEhgKBDAEGHAIIOAVb6P+PeRt2ya8QyduQt4z7os6JDAEGHAIIOAQQdAtgZd4yWcSS1clzHY7tzYX5WdAgg6BBA0CGAoEMAZRwEsKJDAEGHAIIOAQQdAgg6BBB0CCDoEEDQIYCgQwBBhwCCDgEEHQIIOgQQdAjwH8cV9ZEMMgoVAAAAAElFTkSuQmCC;" vertex="1" parent="1">
          <mxGeometry x="130" y="1040" width="40" height="40" as="geometry" />
        </mxCell>
        <mxCell id="N2usLRuaXVRc8HSE8ele-144" value="" style="shape=image;verticalLabelPosition=bottom;labelBackgroundColor=default;verticalAlign=top;aspect=fixed;imageAspect=0;image=data:image/png,iVBORw0KGgoAAAANSUhEUgAAAPoAAAD6CAYAAACI7Fo9AAAACXBIWXMAAA7EAAAOxAGVKw4bAAAJA0lEQVR4nO3dMYhdWR0G8HmiCBsrA1oIgxBIEJuNTRSmjOkCIsQIVsaBhSzsFAGDTYo0koUsJJCFhdlYx4BNukkKi9lSo4VIRmyms4iVWVCLsRXvP/LPnDtvJu/7/crDfe+d+x4fBz7OeXdxsHawBqy2Lxz3BICjJ+gQQNAhgKBDAEGHAIIOAQQdAgg6BBB0CCDoEEDQIYCgQwBBhwCCDgEEHQIIOgQQdAgg6BBA0CGAoEMAQYcAgg4BBB0CCDoEEHQIIOgQQNAhgKBDAEGHAF887glwOIu1xYl5DO7B2sHiuOfA/2dFhwCCDgEEHQIIOgRQxh2jkULt7Nmzk7H19fXWWNf+/n5rbLF3+PtQ5C2HFR0CCDoEEHQIIOgQYHGwdmI2WK20qnjrFmqVkZJtGbpF3t7e3mRMQTc/KzoEEHQIIOgQQNAhgJ1xR2CkeDvpJVvXyH1UO+0UdGOs6BBA0CGAoEMAQYcAyrhBcxdv1Vi1o6yyjNdWY8vYzaegG2NFhwCCDgEEHQIIOgRQxh2BuYu3kQKsa+Qzuq8dmXN1nJU+KzoEEHQIIOgQQNAhgDLuDcy9C667a61bdo1cN2IZ86u+Z7vl+qzoEEDQIYCgQwBBhwDKuBNmd3d3MtbdFbaxsTEZm7ugm3t+lWUUiGms6BBA0CGAoEMAQYcAyrglqcqkbrF18OLJZGxx7nLrtdWOsqoUm7sAm7ugY4wVHQIIOgQQdAgg6BBAGXcEuv/7VhVW966en4zdv3Wrdd3m5uZk7NT333/tPP9bVYp1y8JqLpWtR88PPRfGWNEhgKBDAEGHAIIOARYHa5O/3eI1uv8Zd5IeNvDq6YPJWFXQnfT76M7Pf8bVrOgQQNAhgKBDAEGHAHbGDXr//KnJ2FbRYR0cHE/puVj0uqmy2DpBc+5+z9Ss6BBA0CGAoEMAQYcAyrg3UB3HvHTp0vTC4jjmv/Y+m4z94pPfTMauX78+Gfv4448nY3fv3p2M3bhxYzqXAdX7dT+3ex+/fO+HrblU3/O96sJHrbeLY0WHAIIOAQQdAgg6BFDGDaoefND1g3e/MRk7c+bMZOx7P/naZGykeOseXa1Un1vNr7qP6n67Rr5nrOgQQdAhgKBDAEGHAMq4I1DtoPvyuelDCf75YvqAhK6qAPv6n740Gfvo0J9Ql2d/+/a/D/1+Fy5cmIxV30v3gRD0WdEhgKBDAEGHAIIOATzAYdD9q99pfYHVMctv/ezO7PP5Xwcvnhz6tYtzl2ecSe3Pn96cjO3s7LRe+8Gj33tYQ5MVHQIIOgQQdAgg6BBAGTeoesJq97/lqqOX71THMaux/f3mDJegOb/Pi7H9Yqwq47aK/+Hz5NQ+KzoEEHQIIOgQQNAhgGOqR+CPp4pjlkXBVBZ0xfu9MzCX+7duHfq1H9y+3bru893ecdtu8VZ+f2vTMo4+KzoEEHQIIOgQQNAhgJ1xb6DaBXfx4sXJddWOt6qIunz6ZetzNzc3W9eVu+pmVu1uq2xvb7eue/Ly9GSs+/09e/ZsMma3XM2KDgEEHQIIOgQQdAhgZ9ygkad8Pnj+qndhs9jqHoXt6u5kq1QlW/V+6+vd6zxNdYQVHQIIOgQQdAgg6BBAGfca3V1wlapM6hZM1XXt0m6tV5SN6M6lKtm699st3qrfY/Fs+rvZLWdFhwiCDgEEHQIIOgRQxq2NHT+d297e3qFfu3XjrzPO5DUenWldVt3HyJHeSvVaBV3Nig4BBB0CCDoEEHQIEFfGzV28jeyCq/7zrJpL9X4bGxuTsYfv9YqytU+K0q752mvXrk3GdosHOIzc7wjHWWtWdAgg6BBA0CGAoEOAlS7jTlLx1tV9bVWAVUXZw4cPW59R7UUbKd7m/g7slhtjRYcAgg4BBB0CCDoEWOkyrnJcxdvIrrDu51ZF2Yhu8dadX3W/dssthxUdAgg6BBB0CCDoEGBlyrjjeuBC9/26Rgq16ujqyH/QVe/XvbdukTdiZLdcGis6BBB0CCDoEEDQIcDKlHGV7i6uuY+ajjy8YBk7xebWvY+q3BvZLTdSeqYdXbWiQwBBhwCCDgEEHQKsdBlXGdlN1S3yup87UiYd126vkf9zm/sYLX1WdAgg6BBA0CGAoEOAuDKu2rV29uzZI//caldYZeRYadd3f/vRZOzwtWDfMr6DuXc5rgorOgQQdAgg6BBA0CHASpdxIzvPRty7en4ytlU81bRr7l11t2//fDL26zs3J2Nz72Srnuxaqb6/Jy9nnUocKzoEEHQIIOgQQNAhwEqXcSfJq6cPJmM/ffaPyVhVilU7u7q7vapdZru7f2i9truTrSoGq8/90c07k7FfXfzKZGx7e7v1uZXqc7v3scqs6BBA0CGAoEMAQYcAK13Gjewem3tXXf1+X229tnqgwYiNjXdb13V3so1Yxu7FuXcWvo2s6BBA0CGAoEMAQYcAK13GVbukqqdjLvamT9GsdHejbT16Phm7V134zR9Phnb+Mj2PWe0Uq46aVjveunOuPrcqrKoi79atDydjm5ubk7HqPnZ2diZjT16efu08D6O7c29VnpxasaJDAEGHAIIOAQQdAqxMGVeWbGu9km1u1QMhPiuKt6qwqoqjS5cuzTOxI1LNr7qPuqAr3vDl09b7zV22rjIrOgQQdAgg6BBA0CHAypRxI+beLTdyBLLaKVaVWF3r672jsNV13fuovoNqF9zIfTDGig4BBB0CCDoEEHQIsNJl3Mixw7l3WFUPZkhTFXR//928u+C6VvlIasWKDgEEHQIIOgQQdAiwOFiLP8E3ZOQobLcQunrzw7fuR6rKx+r4blWyVdLKs7lZ0SGAoEMAQYcAgg4BlHFLUpV2x/U/dyOl2NyUbMthRYcAgg4BBB0CCDoEUMYdo6p4u3LlyuS67hNRq+Odjx8/PsTMljcXZdxyWNEhgKBDAEGHAIIOAVb6P+PeRt2ya8QyduQt4z7os6JDAEGHAIIOAQQdAtgZd4yWcSS1clzHY7tzYX5WdAgg6BBA0CGAoEMAZRwEsKJDAEGHAIIOAQQdAgg6BBB0CCDoEEDQIYCgQwBBhwCCDgEEHQIIOgQQdAjwH8cV9ZEMMgoVAAAAAElFTkSuQmCC;" vertex="1" parent="1">
          <mxGeometry x="620" y="1040" width="40" height="40" as="geometry" />
        </mxCell>
        <mxCell id="N2usLRuaXVRc8HSE8ele-145" value="" style="endArrow=classicThin;html=1;rounded=0;endFill=1;entryX=0.687;entryY=-0.017;entryDx=0;entryDy=0;entryPerimeter=0;" edge="1" parent="1">
          <mxGeometry width="50" height="50" relative="1" as="geometry">
            <mxPoint x="431" y="963" as="sourcePoint" />
            <mxPoint x="431.3699999999999" y="989.98" as="targetPoint" />
          </mxGeometry>
        </mxCell>
        <mxCell id="N2usLRuaXVRc8HSE8ele-146" style="edgeStyle=orthogonalEdgeStyle;rounded=1;orthogonalLoop=1;jettySize=auto;html=1;exitX=0.5;exitY=1;exitDx=0;exitDy=0;entryX=0.891;entryY=-0.056;entryDx=0;entryDy=0;entryPerimeter=0;curved=0;endArrow=classicThin;endFill=1;" edge="1" parent="1">
          <mxGeometry relative="1" as="geometry">
            <mxPoint x="395" y="1038" as="sourcePoint" />
            <mxPoint x="363" y="1060" as="targetPoint" />
            <Array as="points">
              <mxPoint x="395" y="1048" />
              <mxPoint x="363" y="1048" />
            </Array>
          </mxGeometry>
        </mxCell>
        <mxCell id="N2usLRuaXVRc8HSE8ele-147" style="edgeStyle=orthogonalEdgeStyle;rounded=1;orthogonalLoop=1;jettySize=auto;html=1;exitX=0.5;exitY=1;exitDx=0;exitDy=0;entryX=0.119;entryY=-0.087;entryDx=0;entryDy=0;entryPerimeter=0;curved=0;endArrow=classicThin;endFill=1;" edge="1" parent="1">
          <mxGeometry relative="1" as="geometry">
            <mxPoint x="395" y="1038" as="sourcePoint" />
            <mxPoint x="430" y="1059" as="targetPoint" />
            <Array as="points">
              <mxPoint x="395" y="1048" />
              <mxPoint x="430" y="1048" />
            </Array>
          </mxGeometry>
        </mxCell>
        <mxCell id="N2usLRuaXVRc8HSE8ele-148" value="" style="endArrow=classicThin;html=1;rounded=0;endFill=1;entryX=0.687;entryY=-0.017;entryDx=0;entryDy=0;entryPerimeter=0;" edge="1" parent="1">
          <mxGeometry width="50" height="50" relative="1" as="geometry">
            <mxPoint x="431" y="1080" as="sourcePoint" />
            <mxPoint x="431.3699999999999" y="1106.98" as="targetPoint" />
          </mxGeometry>
        </mxCell>
        <mxCell id="N2usLRuaXVRc8HSE8ele-149" value="&lt;div style=&quot;padding-left: 5px; padding-right: 5px;&quot;&gt;&lt;div&gt;Smart Money List&lt;/div&gt;&lt;/div&gt;" style="rounded=1;whiteSpace=wrap;html=1;strokeColor=default;fillColor=none;align=center;" vertex="1" parent="1">
          <mxGeometry x="140" y="1107" width="510" height="19" as="geometry" />
        </mxCell>
      </root>
    </mxGraphModel>
  </diagram>
</mxfile>
